M48
;DRILL file {KiCad 4.0.4+e1-6308~48~ubuntu14.04.1-stable} date Sat Oct 22 18:11:34 2016
;FORMAT={2:4/ absolute / inch / suppress leading zeros}
FMAT,2
INCH,TZ
T1C0.025
T2C0.030
T3C0.039
T4C0.039
T5C0.040
T6C0.051
T7C0.079
T8C0.091
%
G90
G05
M72
T1
X57504Y-31808
X58656Y-30792
T2
X55644Y-31812
X59552Y-28592
X61995Y-29025
X63270Y-30495
X64496Y-29048
T3
X57011Y-34790
X57995Y-34790
X58979Y-34790
X62541Y-34790
X63525Y-34790
X64509Y-34790
T4
X61785Y-22360
X62785Y-22360
X62955Y-23925
X63785Y-22360
X67131Y-28101
T5
X67100Y-30600
X67100Y-31600
X67100Y-32600
T6
X69641Y-26984
X69641Y-28984
X69660Y-33005
X69660Y-35005
T8
X57790Y-20785
X67790Y-20785
T7
X55987Y-33451G85X55987Y-33530
G05
X60003Y-33451G85X60003Y-33530
G05
X61517Y-33451G85X61517Y-33530
G05
X65533Y-33451G85X65533Y-33530
G05
T0
M30
