G04 #@! TF.FileFunction,Legend,Top*
%FSLAX46Y46*%
G04 Gerber Fmt 4.6, Leading zero omitted, Abs format (unit mm)*
G04 Created by KiCad (PCBNEW 4.0.4+e1-6308~48~ubuntu14.04.1-stable) date Sat Oct 22 17:56:07 2016*
%MOMM*%
%LPD*%
G01*
G04 APERTURE LIST*
%ADD10C,0.100000*%
%ADD11C,0.200000*%
%ADD12C,0.300000*%
%ADD13C,0.150000*%
%ADD14C,0.076200*%
%ADD15R,2.032000X1.727200*%
%ADD16O,2.032000X1.727200*%
%ADD17C,2.311400*%
%ADD18O,1.501140X2.499360*%
%ADD19R,0.700000X1.300000*%
%ADD20C,1.998980*%
%ADD21R,1.300000X0.700000*%
%ADD22C,2.000000*%
%ADD23O,2.000000X2.200000*%
%ADD24R,1.143000X0.508000*%
%ADD25R,2.540000X2.540000*%
%ADD26O,2.540000X2.540000*%
G04 APERTURE END LIST*
D10*
D11*
X175851820Y-77551280D02*
X175851820Y-77622400D01*
X176639220Y-76763880D02*
X175851820Y-77551280D01*
X177370740Y-77518260D02*
X177370740Y-77563980D01*
X176639220Y-76786740D02*
X177370740Y-77518260D01*
X176636680Y-76779120D02*
X176639220Y-76776580D01*
X176636680Y-78790800D02*
X176636680Y-76779120D01*
D12*
X168775986Y-73402071D02*
X168775986Y-74616357D01*
X168704557Y-74759214D01*
X168633129Y-74830643D01*
X168490272Y-74902071D01*
X168275986Y-74902071D01*
X168133129Y-74830643D01*
X168775986Y-74330643D02*
X168633129Y-74402071D01*
X168347415Y-74402071D01*
X168204557Y-74330643D01*
X168133129Y-74259214D01*
X168061700Y-74116357D01*
X168061700Y-73687786D01*
X168133129Y-73544929D01*
X168204557Y-73473500D01*
X168347415Y-73402071D01*
X168633129Y-73402071D01*
X168775986Y-73473500D01*
X169490272Y-73402071D02*
X169490272Y-74402071D01*
X169490272Y-73544929D02*
X169561700Y-73473500D01*
X169704558Y-73402071D01*
X169918843Y-73402071D01*
X170061700Y-73473500D01*
X170133129Y-73616357D01*
X170133129Y-74402071D01*
X171490272Y-74402071D02*
X171490272Y-72902071D01*
X171490272Y-74330643D02*
X171347415Y-74402071D01*
X171061701Y-74402071D01*
X170918843Y-74330643D01*
X170847415Y-74259214D01*
X170775986Y-74116357D01*
X170775986Y-73687786D01*
X170847415Y-73544929D01*
X170918843Y-73473500D01*
X171061701Y-73402071D01*
X171347415Y-73402071D01*
X171490272Y-73473500D01*
D11*
X172753020Y-81109820D02*
X172808900Y-81109820D01*
X171858940Y-80215740D02*
X172753020Y-81109820D01*
X172780960Y-79265780D02*
X172864780Y-79265780D01*
X171831000Y-80215740D02*
X172780960Y-79265780D01*
X172557440Y-80215740D02*
X171803060Y-80215740D01*
X173228000Y-79545180D02*
X172557440Y-80215740D01*
X174122080Y-79545180D02*
X173228000Y-79545180D01*
D12*
X174318646Y-78723751D02*
X174818646Y-80223751D01*
X175318646Y-78723751D01*
X175818646Y-80223751D02*
X175818646Y-79223751D01*
X175818646Y-78723751D02*
X175747217Y-78795180D01*
X175818646Y-78866609D01*
X175890074Y-78795180D01*
X175818646Y-78723751D01*
X175818646Y-78866609D01*
X176532932Y-79223751D02*
X176532932Y-80223751D01*
X176532932Y-79366609D02*
X176604360Y-79295180D01*
X176747218Y-79223751D01*
X176961503Y-79223751D01*
X177104360Y-79295180D01*
X177175789Y-79438037D01*
X177175789Y-80223751D01*
D13*
X145773280Y-68491100D02*
X146621640Y-67490340D01*
X146621640Y-67490340D02*
X146621640Y-69491860D01*
X146621640Y-69491860D02*
X145773280Y-68491100D01*
X145773280Y-68491100D02*
X145773280Y-69491860D01*
X145773280Y-68491100D02*
X145773280Y-67490340D01*
X143766540Y-70291100D02*
X143766540Y-70091300D01*
X144223580Y-70241160D02*
X144223580Y-70142100D01*
X148369020Y-70291100D02*
X148369020Y-70142100D01*
X143771620Y-66691100D02*
X143771620Y-66840100D01*
X144223580Y-66691100D02*
X144223580Y-66840100D01*
X148374100Y-66691100D02*
X148374100Y-66840100D01*
X144223580Y-70440080D02*
X144223580Y-70241960D01*
X144223580Y-66492120D02*
X144223580Y-66690240D01*
X148369020Y-70487540D02*
X148369020Y-70289420D01*
X143766540Y-70487540D02*
X148369020Y-70487540D01*
X143766540Y-70487540D02*
X143766540Y-70289420D01*
X143771620Y-66492120D02*
X143771620Y-66690240D01*
X143771620Y-66492120D02*
X148374100Y-66492120D01*
X148374100Y-66492120D02*
X148374100Y-66690240D01*
X171704000Y-81534000D02*
X171704000Y-76454000D01*
X171704000Y-76454000D02*
X169164000Y-76454000D01*
X169164000Y-76454000D02*
X169164000Y-81534000D01*
X168884000Y-84354000D02*
X168884000Y-82804000D01*
X169164000Y-81534000D02*
X171704000Y-81534000D01*
X171984000Y-82804000D02*
X171984000Y-84354000D01*
X171984000Y-84354000D02*
X168884000Y-84354000D01*
X138684000Y-65239900D02*
X150990300Y-65239900D01*
X167982900Y-65239900D02*
X180289200Y-65239900D01*
X167982900Y-40347900D02*
X180289200Y-40347900D01*
X138684000Y-40347900D02*
X150990300Y-40347900D01*
X167982900Y-65239900D02*
X167982900Y-53543200D01*
X150990300Y-65239900D02*
X150990300Y-53543200D01*
X150990300Y-52044600D02*
X150990300Y-40347900D01*
X167982900Y-52044600D02*
X167982900Y-40347900D01*
X150990300Y-53543200D02*
X167982900Y-53543200D01*
X150990300Y-52044600D02*
X167982900Y-52044600D01*
X138684000Y-40347900D02*
X138684000Y-65239900D01*
X180289200Y-65239900D02*
X180289200Y-40347900D01*
X157949900Y-53746400D02*
X157949900Y-54889400D01*
X160997900Y-53746400D02*
X160997900Y-54889400D01*
X164807900Y-54889400D02*
X164807900Y-58572400D01*
X164807900Y-58572400D02*
X154139900Y-58572400D01*
X154139900Y-58572400D02*
X154139900Y-54889400D01*
X164807900Y-53746400D02*
X164807900Y-54889400D01*
X164807900Y-54889400D02*
X154139900Y-54889400D01*
X154139900Y-54889400D02*
X154139900Y-53746400D01*
X159473900Y-53746400D02*
X154139900Y-53746400D01*
X159473900Y-53746400D02*
X164807900Y-53746400D01*
X144463060Y-81677480D02*
X143263060Y-81677480D01*
X143263060Y-79927480D02*
X144463060Y-79927480D01*
X147675040Y-70976520D02*
X148875040Y-70976520D01*
X148875040Y-72726520D02*
X147675040Y-72726520D01*
X162514924Y-61582673D02*
X160718873Y-63378724D01*
X160718873Y-63378724D02*
X167903078Y-70562929D01*
X167903078Y-70562929D02*
X169699129Y-68766878D01*
X169699129Y-68766878D02*
X162514924Y-61582673D01*
X169614276Y-70478076D02*
X168801103Y-69664903D01*
X160803726Y-61667526D02*
X161616898Y-62480698D01*
X142515560Y-77291640D02*
X142515560Y-78491640D01*
X140765560Y-78491640D02*
X140765560Y-77291640D01*
X152927080Y-80477920D02*
X152927080Y-79277920D01*
X154677080Y-79277920D02*
X154677080Y-80477920D01*
X148218600Y-79935100D02*
X149418600Y-79935100D01*
X149418600Y-81685100D02*
X148218600Y-81685100D01*
X167194200Y-77814880D02*
X167194200Y-79014880D01*
X165444200Y-79014880D02*
X165444200Y-77814880D01*
X157450080Y-82134680D02*
X156250080Y-82134680D01*
X156250080Y-80384680D02*
X157450080Y-80384680D01*
X161859520Y-82134680D02*
X160659520Y-82134680D01*
X160659520Y-80384680D02*
X161859520Y-80384680D01*
D14*
X145529300Y-91922600D02*
X145529300Y-94970600D01*
X145529300Y-94970600D02*
X148704300Y-94970600D01*
X148704300Y-94970600D02*
X148704300Y-91922600D01*
X142407300Y-82466600D02*
X152207300Y-82466600D01*
X142407300Y-91866600D02*
X152207300Y-91866600D01*
X152207300Y-82466600D02*
X152207300Y-91866600D01*
X142407300Y-82466600D02*
X142407300Y-91866600D01*
X159575500Y-91922600D02*
X159575500Y-94970600D01*
X159575500Y-94970600D02*
X162750500Y-94970600D01*
X162750500Y-94970600D02*
X162750500Y-91922600D01*
X156453500Y-82466600D02*
X166253500Y-82466600D01*
X156453500Y-91866600D02*
X166253500Y-91866600D01*
X166253500Y-82466600D02*
X166253500Y-91866600D01*
X156453500Y-82466600D02*
X156453500Y-91866600D01*
D13*
X150368000Y-73771760D02*
X150368000Y-78851760D01*
X150368000Y-78851760D02*
X145796000Y-78851760D01*
X145796000Y-78851760D02*
X145796000Y-73771760D01*
X145796000Y-73771760D02*
X150368000Y-73771760D01*
X148844000Y-73771760D02*
X148844000Y-74279760D01*
X148844000Y-74279760D02*
X147574000Y-74279760D01*
X147574000Y-74279760D02*
X147574000Y-73771760D01*
X162941000Y-74930000D02*
X162941000Y-80010000D01*
X162941000Y-80010000D02*
X158369000Y-80010000D01*
X158369000Y-80010000D02*
X158369000Y-74930000D01*
X158369000Y-74930000D02*
X162941000Y-74930000D01*
X161417000Y-74930000D02*
X161417000Y-75438000D01*
X161417000Y-75438000D02*
X160147000Y-75438000D01*
X160147000Y-75438000D02*
X160147000Y-74930000D01*
X178511200Y-90512900D02*
X178511200Y-87472700D01*
X175310800Y-82232500D02*
X178562000Y-82232500D01*
X175310800Y-82232500D02*
X175310800Y-85432900D01*
X178511200Y-90512900D02*
X175361600Y-90512900D01*
X175361600Y-90512900D02*
X175361600Y-87472700D01*
X175310800Y-85432900D02*
X178562000Y-85432900D01*
X178562000Y-85432900D02*
X178562000Y-82232500D01*
X178462940Y-75219560D02*
X178462940Y-72179360D01*
X175262540Y-66939160D02*
X178513740Y-66939160D01*
X175262540Y-66939160D02*
X175262540Y-70139560D01*
X178462940Y-75219560D02*
X175313340Y-75219560D01*
X175313340Y-75219560D02*
X175313340Y-72179360D01*
X175262540Y-70139560D02*
X178513740Y-70139560D01*
X178513740Y-70139560D02*
X178513740Y-66939160D01*
X153228301Y-70031716D02*
X152228301Y-70031716D01*
X152228301Y-69793621D01*
X152275920Y-69650763D01*
X152371158Y-69555525D01*
X152466396Y-69507906D01*
X152656872Y-69460287D01*
X152799730Y-69460287D01*
X152990206Y-69507906D01*
X153085444Y-69555525D01*
X153180682Y-69650763D01*
X153228301Y-69793621D01*
X153228301Y-70031716D01*
X152228301Y-69126954D02*
X152228301Y-68507906D01*
X152609253Y-68841240D01*
X152609253Y-68698382D01*
X152656872Y-68603144D01*
X152704491Y-68555525D01*
X152799730Y-68507906D01*
X153037825Y-68507906D01*
X153133063Y-68555525D01*
X153180682Y-68603144D01*
X153228301Y-68698382D01*
X153228301Y-68984097D01*
X153180682Y-69079335D01*
X153133063Y-69126954D01*
X152228301Y-67888859D02*
X152228301Y-67793620D01*
X152275920Y-67698382D01*
X152323539Y-67650763D01*
X152418777Y-67603144D01*
X152609253Y-67555525D01*
X152847349Y-67555525D01*
X153037825Y-67603144D01*
X153133063Y-67650763D01*
X153180682Y-67698382D01*
X153228301Y-67793620D01*
X153228301Y-67888859D01*
X153180682Y-67984097D01*
X153133063Y-68031716D01*
X153037825Y-68079335D01*
X152847349Y-68126954D01*
X152609253Y-68126954D01*
X152418777Y-68079335D01*
X152323539Y-68031716D01*
X152275920Y-67984097D01*
X152228301Y-67888859D01*
X153228301Y-66603144D02*
X153228301Y-67174573D01*
X153228301Y-66888859D02*
X152228301Y-66888859D01*
X152371158Y-66984097D01*
X152466396Y-67079335D01*
X152514015Y-67174573D01*
X142610955Y-71193481D02*
X142610955Y-70193481D01*
X143182384Y-71193481D02*
X142753812Y-70622052D01*
X143182384Y-70193481D02*
X142610955Y-70764910D01*
X148784765Y-70907767D02*
X149260956Y-70907767D01*
X148689527Y-71193481D02*
X149022860Y-70193481D01*
X149356194Y-71193481D01*
X168827344Y-85920841D02*
X168827344Y-84920841D01*
X169208297Y-84920841D01*
X169303535Y-84968460D01*
X169351154Y-85016079D01*
X169398773Y-85111317D01*
X169398773Y-85254174D01*
X169351154Y-85349412D01*
X169303535Y-85397031D01*
X169208297Y-85444650D01*
X168827344Y-85444650D01*
X170351154Y-85920841D02*
X169779725Y-85920841D01*
X170065439Y-85920841D02*
X170065439Y-84920841D01*
X169970201Y-85063698D01*
X169874963Y-85158936D01*
X169779725Y-85206555D01*
X170970201Y-84920841D02*
X171065440Y-84920841D01*
X171160678Y-84968460D01*
X171208297Y-85016079D01*
X171255916Y-85111317D01*
X171303535Y-85301793D01*
X171303535Y-85539889D01*
X171255916Y-85730365D01*
X171208297Y-85825603D01*
X171160678Y-85873222D01*
X171065440Y-85920841D01*
X170970201Y-85920841D01*
X170874963Y-85873222D01*
X170827344Y-85825603D01*
X170779725Y-85730365D01*
X170732106Y-85539889D01*
X170732106Y-85301793D01*
X170779725Y-85111317D01*
X170827344Y-85016079D01*
X170874963Y-84968460D01*
X170970201Y-84920841D01*
X171684487Y-85016079D02*
X171732106Y-84968460D01*
X171827344Y-84920841D01*
X172065440Y-84920841D01*
X172160678Y-84968460D01*
X172208297Y-85016079D01*
X172255916Y-85111317D01*
X172255916Y-85206555D01*
X172208297Y-85349412D01*
X171636868Y-85920841D01*
X172255916Y-85920841D01*
X157796124Y-51531781D02*
X157796124Y-50531781D01*
X158177077Y-50531781D01*
X158272315Y-50579400D01*
X158319934Y-50627019D01*
X158367553Y-50722257D01*
X158367553Y-50865114D01*
X158319934Y-50960352D01*
X158272315Y-51007971D01*
X158177077Y-51055590D01*
X157796124Y-51055590D01*
X158748505Y-50627019D02*
X158796124Y-50579400D01*
X158891362Y-50531781D01*
X159129458Y-50531781D01*
X159224696Y-50579400D01*
X159272315Y-50627019D01*
X159319934Y-50722257D01*
X159319934Y-50817495D01*
X159272315Y-50960352D01*
X158700886Y-51531781D01*
X159319934Y-51531781D01*
X159938981Y-50531781D02*
X160034220Y-50531781D01*
X160129458Y-50579400D01*
X160177077Y-50627019D01*
X160224696Y-50722257D01*
X160272315Y-50912733D01*
X160272315Y-51150829D01*
X160224696Y-51341305D01*
X160177077Y-51436543D01*
X160129458Y-51484162D01*
X160034220Y-51531781D01*
X159938981Y-51531781D01*
X159843743Y-51484162D01*
X159796124Y-51436543D01*
X159748505Y-51341305D01*
X159700886Y-51150829D01*
X159700886Y-50912733D01*
X159748505Y-50722257D01*
X159796124Y-50627019D01*
X159843743Y-50579400D01*
X159938981Y-50531781D01*
X161224696Y-51531781D02*
X160653267Y-51531781D01*
X160938981Y-51531781D02*
X160938981Y-50531781D01*
X160843743Y-50674638D01*
X160748505Y-50769876D01*
X160653267Y-50817495D01*
X155314781Y-60021719D02*
X155219543Y-59974100D01*
X155124305Y-59878862D01*
X154981448Y-59736005D01*
X154886209Y-59688386D01*
X154790971Y-59688386D01*
X154838590Y-59926481D02*
X154743352Y-59878862D01*
X154648114Y-59783624D01*
X154600495Y-59593148D01*
X154600495Y-59259814D01*
X154648114Y-59069338D01*
X154743352Y-58974100D01*
X154838590Y-58926481D01*
X155029067Y-58926481D01*
X155124305Y-58974100D01*
X155219543Y-59069338D01*
X155267162Y-59259814D01*
X155267162Y-59593148D01*
X155219543Y-59783624D01*
X155124305Y-59878862D01*
X155029067Y-59926481D01*
X154838590Y-59926481D01*
X155648114Y-59021719D02*
X155695733Y-58974100D01*
X155790971Y-58926481D01*
X156029067Y-58926481D01*
X156124305Y-58974100D01*
X156171924Y-59021719D01*
X156219543Y-59116957D01*
X156219543Y-59212195D01*
X156171924Y-59355052D01*
X155600495Y-59926481D01*
X156219543Y-59926481D01*
X156838590Y-58926481D02*
X156933829Y-58926481D01*
X157029067Y-58974100D01*
X157076686Y-59021719D01*
X157124305Y-59116957D01*
X157171924Y-59307433D01*
X157171924Y-59545529D01*
X157124305Y-59736005D01*
X157076686Y-59831243D01*
X157029067Y-59878862D01*
X156933829Y-59926481D01*
X156838590Y-59926481D01*
X156743352Y-59878862D01*
X156695733Y-59831243D01*
X156648114Y-59736005D01*
X156600495Y-59545529D01*
X156600495Y-59307433D01*
X156648114Y-59116957D01*
X156695733Y-59021719D01*
X156743352Y-58974100D01*
X156838590Y-58926481D01*
X158124305Y-59926481D02*
X157552876Y-59926481D01*
X157838590Y-59926481D02*
X157838590Y-58926481D01*
X157743352Y-59069338D01*
X157648114Y-59164576D01*
X157552876Y-59212195D01*
X146797021Y-81789447D02*
X146320830Y-82122781D01*
X146797021Y-82360876D02*
X145797021Y-82360876D01*
X145797021Y-81979923D01*
X145844640Y-81884685D01*
X145892259Y-81837066D01*
X145987497Y-81789447D01*
X146130354Y-81789447D01*
X146225592Y-81837066D01*
X146273211Y-81884685D01*
X146320830Y-81979923D01*
X146320830Y-82360876D01*
X145892259Y-81408495D02*
X145844640Y-81360876D01*
X145797021Y-81265638D01*
X145797021Y-81027542D01*
X145844640Y-80932304D01*
X145892259Y-80884685D01*
X145987497Y-80837066D01*
X146082735Y-80837066D01*
X146225592Y-80884685D01*
X146797021Y-81456114D01*
X146797021Y-80837066D01*
X145797021Y-80218019D02*
X145797021Y-80122780D01*
X145844640Y-80027542D01*
X145892259Y-79979923D01*
X145987497Y-79932304D01*
X146177973Y-79884685D01*
X146416069Y-79884685D01*
X146606545Y-79932304D01*
X146701783Y-79979923D01*
X146749402Y-80027542D01*
X146797021Y-80122780D01*
X146797021Y-80218019D01*
X146749402Y-80313257D01*
X146701783Y-80360876D01*
X146606545Y-80408495D01*
X146416069Y-80456114D01*
X146177973Y-80456114D01*
X145987497Y-80408495D01*
X145892259Y-80360876D01*
X145844640Y-80313257D01*
X145797021Y-80218019D01*
X146797021Y-78932304D02*
X146797021Y-79503733D01*
X146797021Y-79218019D02*
X145797021Y-79218019D01*
X145939878Y-79313257D01*
X146035116Y-79408495D01*
X146082735Y-79503733D01*
X143699053Y-72613781D02*
X143365719Y-72137590D01*
X143127624Y-72613781D02*
X143127624Y-71613781D01*
X143508577Y-71613781D01*
X143603815Y-71661400D01*
X143651434Y-71709019D01*
X143699053Y-71804257D01*
X143699053Y-71947114D01*
X143651434Y-72042352D01*
X143603815Y-72089971D01*
X143508577Y-72137590D01*
X143127624Y-72137590D01*
X144080005Y-71709019D02*
X144127624Y-71661400D01*
X144222862Y-71613781D01*
X144460958Y-71613781D01*
X144556196Y-71661400D01*
X144603815Y-71709019D01*
X144651434Y-71804257D01*
X144651434Y-71899495D01*
X144603815Y-72042352D01*
X144032386Y-72613781D01*
X144651434Y-72613781D01*
X145270481Y-71613781D02*
X145365720Y-71613781D01*
X145460958Y-71661400D01*
X145508577Y-71709019D01*
X145556196Y-71804257D01*
X145603815Y-71994733D01*
X145603815Y-72232829D01*
X145556196Y-72423305D01*
X145508577Y-72518543D01*
X145460958Y-72566162D01*
X145365720Y-72613781D01*
X145270481Y-72613781D01*
X145175243Y-72566162D01*
X145127624Y-72518543D01*
X145080005Y-72423305D01*
X145032386Y-72232829D01*
X145032386Y-71994733D01*
X145080005Y-71804257D01*
X145127624Y-71709019D01*
X145175243Y-71661400D01*
X145270481Y-71613781D01*
X145984767Y-71709019D02*
X146032386Y-71661400D01*
X146127624Y-71613781D01*
X146365720Y-71613781D01*
X146460958Y-71661400D01*
X146508577Y-71709019D01*
X146556196Y-71804257D01*
X146556196Y-71899495D01*
X146508577Y-72042352D01*
X145937148Y-72613781D01*
X146556196Y-72613781D01*
X162337833Y-67031636D02*
X162438848Y-66459215D01*
X161933771Y-66627575D02*
X162640878Y-65920468D01*
X162910253Y-66189842D01*
X162943924Y-66290857D01*
X162943924Y-66358201D01*
X162910253Y-66459216D01*
X162809237Y-66560231D01*
X162708222Y-66593903D01*
X162640879Y-66593903D01*
X162539864Y-66560231D01*
X162270489Y-66290857D01*
X163246970Y-66661246D02*
X163314313Y-66661246D01*
X163415328Y-66694918D01*
X163583688Y-66863277D01*
X163617359Y-66964293D01*
X163617359Y-67031636D01*
X163583688Y-67132651D01*
X163516344Y-67199995D01*
X163381657Y-67267338D01*
X162573535Y-67267338D01*
X163011268Y-67705071D01*
X164156107Y-67435697D02*
X164223451Y-67503041D01*
X164257123Y-67604056D01*
X164257123Y-67671399D01*
X164223451Y-67772414D01*
X164122436Y-67940773D01*
X163954076Y-68109132D01*
X163785718Y-68210147D01*
X163684703Y-68243819D01*
X163617359Y-68243819D01*
X163516344Y-68210147D01*
X163449000Y-68142803D01*
X163415328Y-68041788D01*
X163415328Y-67974445D01*
X163449000Y-67873430D01*
X163550015Y-67705071D01*
X163718374Y-67536712D01*
X163886733Y-67435697D01*
X163987748Y-67402025D01*
X164055092Y-67402025D01*
X164156107Y-67435697D01*
X164627512Y-67907101D02*
X165065245Y-68344834D01*
X164560168Y-68378505D01*
X164661184Y-68479521D01*
X164694856Y-68580536D01*
X164694856Y-68647880D01*
X164661183Y-68748896D01*
X164492825Y-68917254D01*
X164391810Y-68950926D01*
X164324466Y-68950926D01*
X164223451Y-68917254D01*
X164021420Y-68715223D01*
X163987748Y-68614208D01*
X163987748Y-68546865D01*
X140651053Y-76004681D02*
X140317719Y-75528490D01*
X140079624Y-76004681D02*
X140079624Y-75004681D01*
X140460577Y-75004681D01*
X140555815Y-75052300D01*
X140603434Y-75099919D01*
X140651053Y-75195157D01*
X140651053Y-75338014D01*
X140603434Y-75433252D01*
X140555815Y-75480871D01*
X140460577Y-75528490D01*
X140079624Y-75528490D01*
X140984386Y-75004681D02*
X141603434Y-75004681D01*
X141270100Y-75385633D01*
X141412958Y-75385633D01*
X141508196Y-75433252D01*
X141555815Y-75480871D01*
X141603434Y-75576110D01*
X141603434Y-75814205D01*
X141555815Y-75909443D01*
X141508196Y-75957062D01*
X141412958Y-76004681D01*
X141127243Y-76004681D01*
X141032005Y-75957062D01*
X140984386Y-75909443D01*
X142222481Y-75004681D02*
X142317720Y-75004681D01*
X142412958Y-75052300D01*
X142460577Y-75099919D01*
X142508196Y-75195157D01*
X142555815Y-75385633D01*
X142555815Y-75623729D01*
X142508196Y-75814205D01*
X142460577Y-75909443D01*
X142412958Y-75957062D01*
X142317720Y-76004681D01*
X142222481Y-76004681D01*
X142127243Y-75957062D01*
X142079624Y-75909443D01*
X142032005Y-75814205D01*
X141984386Y-75623729D01*
X141984386Y-75385633D01*
X142032005Y-75195157D01*
X142079624Y-75099919D01*
X142127243Y-75052300D01*
X142222481Y-75004681D01*
X143508196Y-76004681D02*
X142936767Y-76004681D01*
X143222481Y-76004681D02*
X143222481Y-75004681D01*
X143127243Y-75147538D01*
X143032005Y-75242776D01*
X142936767Y-75290395D01*
X154317961Y-77311427D02*
X153841770Y-77644761D01*
X154317961Y-77882856D02*
X153317961Y-77882856D01*
X153317961Y-77501903D01*
X153365580Y-77406665D01*
X153413199Y-77359046D01*
X153508437Y-77311427D01*
X153651294Y-77311427D01*
X153746532Y-77359046D01*
X153794151Y-77406665D01*
X153841770Y-77501903D01*
X153841770Y-77882856D01*
X153317961Y-76978094D02*
X153317961Y-76359046D01*
X153698913Y-76692380D01*
X153698913Y-76549522D01*
X153746532Y-76454284D01*
X153794151Y-76406665D01*
X153889390Y-76359046D01*
X154127485Y-76359046D01*
X154222723Y-76406665D01*
X154270342Y-76454284D01*
X154317961Y-76549522D01*
X154317961Y-76835237D01*
X154270342Y-76930475D01*
X154222723Y-76978094D01*
X153317961Y-75739999D02*
X153317961Y-75644760D01*
X153365580Y-75549522D01*
X153413199Y-75501903D01*
X153508437Y-75454284D01*
X153698913Y-75406665D01*
X153937009Y-75406665D01*
X154127485Y-75454284D01*
X154222723Y-75501903D01*
X154270342Y-75549522D01*
X154317961Y-75644760D01*
X154317961Y-75739999D01*
X154270342Y-75835237D01*
X154222723Y-75882856D01*
X154127485Y-75930475D01*
X153937009Y-75978094D01*
X153698913Y-75978094D01*
X153508437Y-75930475D01*
X153413199Y-75882856D01*
X153365580Y-75835237D01*
X153317961Y-75739999D01*
X153413199Y-75025713D02*
X153365580Y-74978094D01*
X153317961Y-74882856D01*
X153317961Y-74644760D01*
X153365580Y-74549522D01*
X153413199Y-74501903D01*
X153508437Y-74454284D01*
X153603675Y-74454284D01*
X153746532Y-74501903D01*
X154317961Y-75073332D01*
X154317961Y-74454284D01*
X151803361Y-81725947D02*
X151327170Y-82059281D01*
X151803361Y-82297376D02*
X150803361Y-82297376D01*
X150803361Y-81916423D01*
X150850980Y-81821185D01*
X150898599Y-81773566D01*
X150993837Y-81725947D01*
X151136694Y-81725947D01*
X151231932Y-81773566D01*
X151279551Y-81821185D01*
X151327170Y-81916423D01*
X151327170Y-82297376D01*
X150803361Y-81392614D02*
X150803361Y-80773566D01*
X151184313Y-81106900D01*
X151184313Y-80964042D01*
X151231932Y-80868804D01*
X151279551Y-80821185D01*
X151374790Y-80773566D01*
X151612885Y-80773566D01*
X151708123Y-80821185D01*
X151755742Y-80868804D01*
X151803361Y-80964042D01*
X151803361Y-81249757D01*
X151755742Y-81344995D01*
X151708123Y-81392614D01*
X150803361Y-80154519D02*
X150803361Y-80059280D01*
X150850980Y-79964042D01*
X150898599Y-79916423D01*
X150993837Y-79868804D01*
X151184313Y-79821185D01*
X151422409Y-79821185D01*
X151612885Y-79868804D01*
X151708123Y-79916423D01*
X151755742Y-79964042D01*
X151803361Y-80059280D01*
X151803361Y-80154519D01*
X151755742Y-80249757D01*
X151708123Y-80297376D01*
X151612885Y-80344995D01*
X151422409Y-80392614D01*
X151184313Y-80392614D01*
X150993837Y-80344995D01*
X150898599Y-80297376D01*
X150850980Y-80249757D01*
X150803361Y-80154519D01*
X150803361Y-79487852D02*
X150803361Y-78868804D01*
X151184313Y-79202138D01*
X151184313Y-79059280D01*
X151231932Y-78964042D01*
X151279551Y-78916423D01*
X151374790Y-78868804D01*
X151612885Y-78868804D01*
X151708123Y-78916423D01*
X151755742Y-78964042D01*
X151803361Y-79059280D01*
X151803361Y-79344995D01*
X151755742Y-79440233D01*
X151708123Y-79487852D01*
X165644653Y-76538081D02*
X165311319Y-76061890D01*
X165073224Y-76538081D02*
X165073224Y-75538081D01*
X165454177Y-75538081D01*
X165549415Y-75585700D01*
X165597034Y-75633319D01*
X165644653Y-75728557D01*
X165644653Y-75871414D01*
X165597034Y-75966652D01*
X165549415Y-76014271D01*
X165454177Y-76061890D01*
X165073224Y-76061890D01*
X166501796Y-75871414D02*
X166501796Y-76538081D01*
X166263700Y-75490462D02*
X166025605Y-76204748D01*
X166644653Y-76204748D01*
X167216081Y-75538081D02*
X167311320Y-75538081D01*
X167406558Y-75585700D01*
X167454177Y-75633319D01*
X167501796Y-75728557D01*
X167549415Y-75919033D01*
X167549415Y-76157129D01*
X167501796Y-76347605D01*
X167454177Y-76442843D01*
X167406558Y-76490462D01*
X167311320Y-76538081D01*
X167216081Y-76538081D01*
X167120843Y-76490462D01*
X167073224Y-76442843D01*
X167025605Y-76347605D01*
X166977986Y-76157129D01*
X166977986Y-75919033D01*
X167025605Y-75728557D01*
X167073224Y-75633319D01*
X167120843Y-75585700D01*
X167216081Y-75538081D01*
X168501796Y-76538081D02*
X167930367Y-76538081D01*
X168216081Y-76538081D02*
X168216081Y-75538081D01*
X168120843Y-75680938D01*
X168025605Y-75776176D01*
X167930367Y-75823795D01*
X156301701Y-79462807D02*
X155825510Y-79796141D01*
X156301701Y-80034236D02*
X155301701Y-80034236D01*
X155301701Y-79653283D01*
X155349320Y-79558045D01*
X155396939Y-79510426D01*
X155492177Y-79462807D01*
X155635034Y-79462807D01*
X155730272Y-79510426D01*
X155777891Y-79558045D01*
X155825510Y-79653283D01*
X155825510Y-80034236D01*
X155635034Y-78605664D02*
X156301701Y-78605664D01*
X155254082Y-78843760D02*
X155968368Y-79081855D01*
X155968368Y-78462807D01*
X155301701Y-77891379D02*
X155301701Y-77796140D01*
X155349320Y-77700902D01*
X155396939Y-77653283D01*
X155492177Y-77605664D01*
X155682653Y-77558045D01*
X155920749Y-77558045D01*
X156111225Y-77605664D01*
X156206463Y-77653283D01*
X156254082Y-77700902D01*
X156301701Y-77796140D01*
X156301701Y-77891379D01*
X156254082Y-77986617D01*
X156206463Y-78034236D01*
X156111225Y-78081855D01*
X155920749Y-78129474D01*
X155682653Y-78129474D01*
X155492177Y-78081855D01*
X155396939Y-78034236D01*
X155349320Y-77986617D01*
X155301701Y-77891379D01*
X155396939Y-77177093D02*
X155349320Y-77129474D01*
X155301701Y-77034236D01*
X155301701Y-76796140D01*
X155349320Y-76700902D01*
X155396939Y-76653283D01*
X155492177Y-76605664D01*
X155587415Y-76605664D01*
X155730272Y-76653283D01*
X156301701Y-77224712D01*
X156301701Y-76605664D01*
X163701553Y-81986381D02*
X163368219Y-81510190D01*
X163130124Y-81986381D02*
X163130124Y-80986381D01*
X163511077Y-80986381D01*
X163606315Y-81034000D01*
X163653934Y-81081619D01*
X163701553Y-81176857D01*
X163701553Y-81319714D01*
X163653934Y-81414952D01*
X163606315Y-81462571D01*
X163511077Y-81510190D01*
X163130124Y-81510190D01*
X164558696Y-81319714D02*
X164558696Y-81986381D01*
X164320600Y-80938762D02*
X164082505Y-81653048D01*
X164701553Y-81653048D01*
X165272981Y-80986381D02*
X165368220Y-80986381D01*
X165463458Y-81034000D01*
X165511077Y-81081619D01*
X165558696Y-81176857D01*
X165606315Y-81367333D01*
X165606315Y-81605429D01*
X165558696Y-81795905D01*
X165511077Y-81891143D01*
X165463458Y-81938762D01*
X165368220Y-81986381D01*
X165272981Y-81986381D01*
X165177743Y-81938762D01*
X165130124Y-81891143D01*
X165082505Y-81795905D01*
X165034886Y-81605429D01*
X165034886Y-81367333D01*
X165082505Y-81176857D01*
X165130124Y-81081619D01*
X165177743Y-81034000D01*
X165272981Y-80986381D01*
X165939648Y-80986381D02*
X166558696Y-80986381D01*
X166225362Y-81367333D01*
X166368220Y-81367333D01*
X166463458Y-81414952D01*
X166511077Y-81462571D01*
X166558696Y-81557810D01*
X166558696Y-81795905D01*
X166511077Y-81891143D01*
X166463458Y-81938762D01*
X166368220Y-81986381D01*
X166082505Y-81986381D01*
X165987267Y-81938762D01*
X165939648Y-81891143D01*
X142070081Y-90511119D02*
X141593890Y-90844453D01*
X142070081Y-91082548D02*
X141070081Y-91082548D01*
X141070081Y-90701595D01*
X141117700Y-90606357D01*
X141165319Y-90558738D01*
X141260557Y-90511119D01*
X141403414Y-90511119D01*
X141498652Y-90558738D01*
X141546271Y-90606357D01*
X141593890Y-90701595D01*
X141593890Y-91082548D01*
X141070081Y-90225405D02*
X142070081Y-89892072D01*
X141070081Y-89558738D01*
X141165319Y-89273024D02*
X141117700Y-89225405D01*
X141070081Y-89130167D01*
X141070081Y-88892071D01*
X141117700Y-88796833D01*
X141165319Y-88749214D01*
X141260557Y-88701595D01*
X141355795Y-88701595D01*
X141498652Y-88749214D01*
X142070081Y-89320643D01*
X142070081Y-88701595D01*
X141070081Y-88082548D02*
X141070081Y-87987309D01*
X141117700Y-87892071D01*
X141165319Y-87844452D01*
X141260557Y-87796833D01*
X141451033Y-87749214D01*
X141689129Y-87749214D01*
X141879605Y-87796833D01*
X141974843Y-87844452D01*
X142022462Y-87892071D01*
X142070081Y-87987309D01*
X142070081Y-88082548D01*
X142022462Y-88177786D01*
X141974843Y-88225405D01*
X141879605Y-88273024D01*
X141689129Y-88320643D01*
X141451033Y-88320643D01*
X141260557Y-88273024D01*
X141165319Y-88225405D01*
X141117700Y-88177786D01*
X141070081Y-88082548D01*
X142070081Y-86796833D02*
X142070081Y-87368262D01*
X142070081Y-87082548D02*
X141070081Y-87082548D01*
X141212938Y-87177786D01*
X141308176Y-87273024D01*
X141355795Y-87368262D01*
X167597081Y-90473019D02*
X167120890Y-90806353D01*
X167597081Y-91044448D02*
X166597081Y-91044448D01*
X166597081Y-90663495D01*
X166644700Y-90568257D01*
X166692319Y-90520638D01*
X166787557Y-90473019D01*
X166930414Y-90473019D01*
X167025652Y-90520638D01*
X167073271Y-90568257D01*
X167120890Y-90663495D01*
X167120890Y-91044448D01*
X166597081Y-90187305D02*
X167597081Y-89853972D01*
X166597081Y-89520638D01*
X166597081Y-89282543D02*
X166597081Y-88663495D01*
X166978033Y-88996829D01*
X166978033Y-88853971D01*
X167025652Y-88758733D01*
X167073271Y-88711114D01*
X167168510Y-88663495D01*
X167406605Y-88663495D01*
X167501843Y-88711114D01*
X167549462Y-88758733D01*
X167597081Y-88853971D01*
X167597081Y-89139686D01*
X167549462Y-89234924D01*
X167501843Y-89282543D01*
X166597081Y-88044448D02*
X166597081Y-87949209D01*
X166644700Y-87853971D01*
X166692319Y-87806352D01*
X166787557Y-87758733D01*
X166978033Y-87711114D01*
X167216129Y-87711114D01*
X167406605Y-87758733D01*
X167501843Y-87806352D01*
X167549462Y-87853971D01*
X167597081Y-87949209D01*
X167597081Y-88044448D01*
X167549462Y-88139686D01*
X167501843Y-88187305D01*
X167406605Y-88234924D01*
X167216129Y-88282543D01*
X166978033Y-88282543D01*
X166787557Y-88234924D01*
X166692319Y-88187305D01*
X166644700Y-88139686D01*
X166597081Y-88044448D01*
X167597081Y-86758733D02*
X167597081Y-87330162D01*
X167597081Y-87044448D02*
X166597081Y-87044448D01*
X166739938Y-87139686D01*
X166835176Y-87234924D01*
X166882795Y-87330162D01*
X150279314Y-72571361D02*
X150279314Y-73380885D01*
X150326933Y-73476123D01*
X150374552Y-73523742D01*
X150469790Y-73571361D01*
X150660267Y-73571361D01*
X150755505Y-73523742D01*
X150803124Y-73476123D01*
X150850743Y-73380885D01*
X150850743Y-72571361D01*
X151279314Y-72666599D02*
X151326933Y-72618980D01*
X151422171Y-72571361D01*
X151660267Y-72571361D01*
X151755505Y-72618980D01*
X151803124Y-72666599D01*
X151850743Y-72761837D01*
X151850743Y-72857075D01*
X151803124Y-72999932D01*
X151231695Y-73571361D01*
X151850743Y-73571361D01*
X152469790Y-72571361D02*
X152565029Y-72571361D01*
X152660267Y-72618980D01*
X152707886Y-72666599D01*
X152755505Y-72761837D01*
X152803124Y-72952313D01*
X152803124Y-73190409D01*
X152755505Y-73380885D01*
X152707886Y-73476123D01*
X152660267Y-73523742D01*
X152565029Y-73571361D01*
X152469790Y-73571361D01*
X152374552Y-73523742D01*
X152326933Y-73476123D01*
X152279314Y-73380885D01*
X152231695Y-73190409D01*
X152231695Y-72952313D01*
X152279314Y-72761837D01*
X152326933Y-72666599D01*
X152374552Y-72618980D01*
X152469790Y-72571361D01*
X153755505Y-73571361D02*
X153184076Y-73571361D01*
X153469790Y-73571361D02*
X153469790Y-72571361D01*
X153374552Y-72714218D01*
X153279314Y-72809456D01*
X153184076Y-72857075D01*
X159098194Y-73498461D02*
X159098194Y-74307985D01*
X159145813Y-74403223D01*
X159193432Y-74450842D01*
X159288670Y-74498461D01*
X159479147Y-74498461D01*
X159574385Y-74450842D01*
X159622004Y-74403223D01*
X159669623Y-74307985D01*
X159669623Y-73498461D01*
X160574385Y-73831794D02*
X160574385Y-74498461D01*
X160336289Y-73450842D02*
X160098194Y-74165128D01*
X160717242Y-74165128D01*
X161288670Y-73498461D02*
X161383909Y-73498461D01*
X161479147Y-73546080D01*
X161526766Y-73593699D01*
X161574385Y-73688937D01*
X161622004Y-73879413D01*
X161622004Y-74117509D01*
X161574385Y-74307985D01*
X161526766Y-74403223D01*
X161479147Y-74450842D01*
X161383909Y-74498461D01*
X161288670Y-74498461D01*
X161193432Y-74450842D01*
X161145813Y-74403223D01*
X161098194Y-74307985D01*
X161050575Y-74117509D01*
X161050575Y-73879413D01*
X161098194Y-73688937D01*
X161145813Y-73593699D01*
X161193432Y-73546080D01*
X161288670Y-73498461D01*
X162574385Y-74498461D02*
X162002956Y-74498461D01*
X162288670Y-74498461D02*
X162288670Y-73498461D01*
X162193432Y-73641318D01*
X162098194Y-73736556D01*
X162002956Y-73784175D01*
X172435781Y-90958776D02*
X171435781Y-90958776D01*
X171435781Y-90577823D01*
X171483400Y-90482585D01*
X171531019Y-90434966D01*
X171626257Y-90387347D01*
X171769114Y-90387347D01*
X171864352Y-90434966D01*
X171911971Y-90482585D01*
X171959590Y-90577823D01*
X171959590Y-90958776D01*
X172435781Y-89434966D02*
X172435781Y-90006395D01*
X172435781Y-89720681D02*
X171435781Y-89720681D01*
X171578638Y-89815919D01*
X171673876Y-89911157D01*
X171721495Y-90006395D01*
X171435781Y-88815919D02*
X171435781Y-88720680D01*
X171483400Y-88625442D01*
X171531019Y-88577823D01*
X171626257Y-88530204D01*
X171816733Y-88482585D01*
X172054829Y-88482585D01*
X172245305Y-88530204D01*
X172340543Y-88577823D01*
X172388162Y-88625442D01*
X172435781Y-88720680D01*
X172435781Y-88815919D01*
X172388162Y-88911157D01*
X172340543Y-88958776D01*
X172245305Y-89006395D01*
X172054829Y-89054014D01*
X171816733Y-89054014D01*
X171626257Y-89006395D01*
X171531019Y-88958776D01*
X171483400Y-88911157D01*
X171435781Y-88815919D01*
X172435781Y-87530204D02*
X172435781Y-88101633D01*
X172435781Y-87815919D02*
X171435781Y-87815919D01*
X171578638Y-87911157D01*
X171673876Y-88006395D01*
X171721495Y-88101633D01*
X172435781Y-69927576D02*
X171435781Y-69927576D01*
X171435781Y-69546623D01*
X171483400Y-69451385D01*
X171531019Y-69403766D01*
X171626257Y-69356147D01*
X171769114Y-69356147D01*
X171864352Y-69403766D01*
X171911971Y-69451385D01*
X171959590Y-69546623D01*
X171959590Y-69927576D01*
X172435781Y-68403766D02*
X172435781Y-68975195D01*
X172435781Y-68689481D02*
X171435781Y-68689481D01*
X171578638Y-68784719D01*
X171673876Y-68879957D01*
X171721495Y-68975195D01*
X171435781Y-67784719D02*
X171435781Y-67689480D01*
X171483400Y-67594242D01*
X171531019Y-67546623D01*
X171626257Y-67499004D01*
X171816733Y-67451385D01*
X172054829Y-67451385D01*
X172245305Y-67499004D01*
X172340543Y-67546623D01*
X172388162Y-67594242D01*
X172435781Y-67689480D01*
X172435781Y-67784719D01*
X172388162Y-67879957D01*
X172340543Y-67927576D01*
X172245305Y-67975195D01*
X172054829Y-68022814D01*
X171816733Y-68022814D01*
X171626257Y-67975195D01*
X171531019Y-67927576D01*
X171483400Y-67879957D01*
X171435781Y-67784719D01*
X171435781Y-67118052D02*
X171435781Y-66499004D01*
X171816733Y-66832338D01*
X171816733Y-66689480D01*
X171864352Y-66594242D01*
X171911971Y-66546623D01*
X172007210Y-66499004D01*
X172245305Y-66499004D01*
X172340543Y-66546623D01*
X172388162Y-66594242D01*
X172435781Y-66689480D01*
X172435781Y-66975195D01*
X172388162Y-67070433D01*
X172340543Y-67118052D01*
%LPC*%
D10*
G36*
X140722350Y-70291960D02*
X140722350Y-66690240D01*
X145022570Y-67691000D01*
X145022570Y-69291200D01*
X140722350Y-70291960D01*
X140722350Y-70291960D01*
G37*
G36*
X151423370Y-66690240D02*
X151423370Y-70291960D01*
X147123150Y-69291200D01*
X147123150Y-67691000D01*
X151423370Y-66690240D01*
X151423370Y-66690240D01*
G37*
D15*
X170434000Y-82804000D03*
D16*
X170434000Y-80264000D03*
X170434000Y-77724000D03*
D17*
X146786600Y-52793900D03*
X172186600Y-52793900D03*
D18*
X159473900Y-56794400D03*
X156933900Y-56794400D03*
X162013900Y-56794400D03*
D19*
X142913060Y-80802480D03*
X144813060Y-80802480D03*
X149225040Y-71851520D03*
X147325040Y-71851520D03*
D20*
X159905700Y-60769500D03*
X170512302Y-71376102D03*
D21*
X141640560Y-78841640D03*
X141640560Y-76941640D03*
X153802080Y-78927920D03*
X153802080Y-80827920D03*
D19*
X149768600Y-80810100D03*
X147868600Y-80810100D03*
D21*
X166319200Y-79364880D03*
X166319200Y-77464880D03*
D19*
X155900080Y-81259680D03*
X157800080Y-81259680D03*
X160309520Y-81259680D03*
X162209520Y-81259680D03*
D22*
X144807300Y-88366600D03*
X147307300Y-88366600D03*
X149807300Y-88366600D03*
D23*
X152407300Y-85066600D03*
X142207300Y-85066600D03*
D22*
X158853500Y-88366600D03*
X161353500Y-88366600D03*
X163853500Y-88366600D03*
D23*
X166453500Y-85066600D03*
X156253500Y-85066600D03*
D24*
X151257000Y-74406760D03*
X151257000Y-75676760D03*
X151257000Y-76946760D03*
X151257000Y-78216760D03*
X144907000Y-78216760D03*
X144907000Y-76946760D03*
X144907000Y-75676760D03*
X144907000Y-74406760D03*
X163830000Y-75565000D03*
X163830000Y-76835000D03*
X163830000Y-78105000D03*
X163830000Y-79375000D03*
X157480000Y-79375000D03*
X157480000Y-78105000D03*
X157480000Y-76835000D03*
X157480000Y-75565000D03*
D25*
X176936400Y-88912700D03*
D26*
X176936400Y-83832700D03*
D25*
X176888140Y-73619360D03*
D26*
X176888140Y-68539360D03*
M02*
