G04 #@! TF.FileFunction,Legend,Bot*
%FSLAX46Y46*%
G04 Gerber Fmt 4.6, Leading zero omitted, Abs format (unit mm)*
G04 Created by KiCad (PCBNEW 4.0.4+e1-6308~48~ubuntu14.04.1-stable) date Sat Oct 22 18:10:56 2016*
%MOMM*%
%LPD*%
G01*
G04 APERTURE LIST*
%ADD10C,0.100000*%
%ADD11C,0.150000*%
%ADD12R,1.250000X1.000000*%
%ADD13R,2.032000X1.727200*%
%ADD14O,2.032000X1.727200*%
%ADD15C,2.311400*%
%ADD16O,1.501140X2.499360*%
%ADD17C,1.998980*%
%ADD18C,2.000000*%
%ADD19O,2.000000X2.200000*%
%ADD20R,2.540000X2.540000*%
%ADD21O,2.540000X2.540000*%
G04 APERTURE END LIST*
D10*
D11*
X143292460Y-82000980D02*
X143292460Y-81000980D01*
X144992460Y-81000980D02*
X144992460Y-82000980D01*
X164751120Y-70152640D02*
X164751120Y-71152640D01*
X163051120Y-71152640D02*
X163051120Y-70152640D01*
X158350320Y-70152640D02*
X158350320Y-71152640D01*
X156650320Y-71152640D02*
X156650320Y-70152640D01*
X145479947Y-79186043D02*
X145527566Y-79233662D01*
X145670423Y-79281281D01*
X145765661Y-79281281D01*
X145908519Y-79233662D01*
X146003757Y-79138424D01*
X146051376Y-79043186D01*
X146098995Y-78852710D01*
X146098995Y-78709852D01*
X146051376Y-78519376D01*
X146003757Y-78424138D01*
X145908519Y-78328900D01*
X145765661Y-78281281D01*
X145670423Y-78281281D01*
X145527566Y-78328900D01*
X145479947Y-78376519D01*
X145146614Y-78281281D02*
X144527566Y-78281281D01*
X144860900Y-78662233D01*
X144718042Y-78662233D01*
X144622804Y-78709852D01*
X144575185Y-78757471D01*
X144527566Y-78852710D01*
X144527566Y-79090805D01*
X144575185Y-79186043D01*
X144622804Y-79233662D01*
X144718042Y-79281281D01*
X145003757Y-79281281D01*
X145098995Y-79233662D01*
X145146614Y-79186043D01*
X143908519Y-78281281D02*
X143813280Y-78281281D01*
X143718042Y-78328900D01*
X143670423Y-78376519D01*
X143622804Y-78471757D01*
X143575185Y-78662233D01*
X143575185Y-78900329D01*
X143622804Y-79090805D01*
X143670423Y-79186043D01*
X143718042Y-79233662D01*
X143813280Y-79281281D01*
X143908519Y-79281281D01*
X144003757Y-79233662D01*
X144051376Y-79186043D01*
X144098995Y-79090805D01*
X144146614Y-78900329D01*
X144146614Y-78662233D01*
X144098995Y-78471757D01*
X144051376Y-78376519D01*
X144003757Y-78328900D01*
X143908519Y-78281281D01*
X142622804Y-79281281D02*
X143194233Y-79281281D01*
X142908519Y-79281281D02*
X142908519Y-78281281D01*
X143003757Y-78424138D01*
X143098995Y-78519376D01*
X143194233Y-78566995D01*
X162317703Y-69426913D02*
X162365322Y-69379294D01*
X162412941Y-69236437D01*
X162412941Y-69141199D01*
X162365322Y-68998341D01*
X162270084Y-68903103D01*
X162174846Y-68855484D01*
X161984370Y-68807865D01*
X161841512Y-68807865D01*
X161651036Y-68855484D01*
X161555798Y-68903103D01*
X161460560Y-68998341D01*
X161412941Y-69141199D01*
X161412941Y-69236437D01*
X161460560Y-69379294D01*
X161508179Y-69426913D01*
X161746274Y-70284056D02*
X162412941Y-70284056D01*
X161365322Y-70045960D02*
X162079608Y-69807865D01*
X162079608Y-70426913D01*
X161412941Y-70998341D02*
X161412941Y-71093580D01*
X161460560Y-71188818D01*
X161508179Y-71236437D01*
X161603417Y-71284056D01*
X161793893Y-71331675D01*
X162031989Y-71331675D01*
X162222465Y-71284056D01*
X162317703Y-71236437D01*
X162365322Y-71188818D01*
X162412941Y-71093580D01*
X162412941Y-70998341D01*
X162365322Y-70903103D01*
X162317703Y-70855484D01*
X162222465Y-70807865D01*
X162031989Y-70760246D01*
X161793893Y-70760246D01*
X161603417Y-70807865D01*
X161508179Y-70855484D01*
X161460560Y-70903103D01*
X161412941Y-70998341D01*
X162412941Y-72284056D02*
X162412941Y-71712627D01*
X162412941Y-71998341D02*
X161412941Y-71998341D01*
X161555798Y-71903103D01*
X161651036Y-71807865D01*
X161698655Y-71712627D01*
X156048983Y-69574233D02*
X156096602Y-69526614D01*
X156144221Y-69383757D01*
X156144221Y-69288519D01*
X156096602Y-69145661D01*
X156001364Y-69050423D01*
X155906126Y-69002804D01*
X155715650Y-68955185D01*
X155572792Y-68955185D01*
X155382316Y-69002804D01*
X155287078Y-69050423D01*
X155191840Y-69145661D01*
X155144221Y-69288519D01*
X155144221Y-69383757D01*
X155191840Y-69526614D01*
X155239459Y-69574233D01*
X155477554Y-70431376D02*
X156144221Y-70431376D01*
X155096602Y-70193280D02*
X155810888Y-69955185D01*
X155810888Y-70574233D01*
X155144221Y-71145661D02*
X155144221Y-71240900D01*
X155191840Y-71336138D01*
X155239459Y-71383757D01*
X155334697Y-71431376D01*
X155525173Y-71478995D01*
X155763269Y-71478995D01*
X155953745Y-71431376D01*
X156048983Y-71383757D01*
X156096602Y-71336138D01*
X156144221Y-71240900D01*
X156144221Y-71145661D01*
X156096602Y-71050423D01*
X156048983Y-71002804D01*
X155953745Y-70955185D01*
X155763269Y-70907566D01*
X155525173Y-70907566D01*
X155334697Y-70955185D01*
X155239459Y-71002804D01*
X155191840Y-71050423D01*
X155144221Y-71145661D01*
X155239459Y-71859947D02*
X155191840Y-71907566D01*
X155144221Y-72002804D01*
X155144221Y-72240900D01*
X155191840Y-72336138D01*
X155239459Y-72383757D01*
X155334697Y-72431376D01*
X155429935Y-72431376D01*
X155572792Y-72383757D01*
X156144221Y-71812328D01*
X156144221Y-72431376D01*
%LPC*%
D12*
X144142460Y-80500980D03*
X144142460Y-82500980D03*
X163901120Y-71652640D03*
X163901120Y-69652640D03*
X157500320Y-71652640D03*
X157500320Y-69652640D03*
D13*
X170434000Y-82804000D03*
D14*
X170434000Y-80264000D03*
X170434000Y-77724000D03*
D15*
X146786600Y-52793900D03*
X172186600Y-52793900D03*
D16*
X159473900Y-56794400D03*
X156933900Y-56794400D03*
X162013900Y-56794400D03*
D17*
X159905700Y-60769500D03*
X170512302Y-71376102D03*
D18*
X144807300Y-88366600D03*
X147307300Y-88366600D03*
X149807300Y-88366600D03*
D19*
X152407300Y-85066600D03*
X142207300Y-85066600D03*
D18*
X158853500Y-88366600D03*
X161353500Y-88366600D03*
X163853500Y-88366600D03*
D19*
X166453500Y-85066600D03*
X156253500Y-85066600D03*
D20*
X176936400Y-88912700D03*
D21*
X176936400Y-83832700D03*
D20*
X176888140Y-73619360D03*
D21*
X176888140Y-68539360D03*
M02*
