G04 #@! TF.FileFunction,Copper,L1,Top,Signal*
%FSLAX46Y46*%
G04 Gerber Fmt 4.6, Leading zero omitted, Abs format (unit mm)*
G04 Created by KiCad (PCBNEW 4.0.4+e1-6308~48~ubuntu14.04.1-stable) date Sat Oct 22 17:56:07 2016*
%MOMM*%
%LPD*%
G01*
G04 APERTURE LIST*
%ADD10C,0.100000*%
%ADD11R,2.032000X1.727200*%
%ADD12O,2.032000X1.727200*%
%ADD13O,1.501140X2.499360*%
%ADD14R,0.700000X1.300000*%
%ADD15C,1.998980*%
%ADD16R,1.300000X0.700000*%
%ADD17C,2.000000*%
%ADD18R,1.143000X0.508000*%
%ADD19R,2.540000X2.540000*%
%ADD20O,2.540000X2.540000*%
%ADD21C,1.143000*%
%ADD22C,0.889000*%
%ADD23C,0.609600*%
%ADD24C,0.254000*%
G04 APERTURE END LIST*
D10*
G36*
X140722350Y-70291960D02*
X140722350Y-66690240D01*
X145022570Y-67691000D01*
X145022570Y-69291200D01*
X140722350Y-70291960D01*
X140722350Y-70291960D01*
G37*
G36*
X151423370Y-66690240D02*
X151423370Y-70291960D01*
X147123150Y-69291200D01*
X147123150Y-67691000D01*
X151423370Y-66690240D01*
X151423370Y-66690240D01*
G37*
D11*
X170434000Y-82804000D03*
D12*
X170434000Y-80264000D03*
X170434000Y-77724000D03*
D13*
X159473900Y-56794400D03*
X156933900Y-56794400D03*
X162013900Y-56794400D03*
D14*
X142913060Y-80802480D03*
X144813060Y-80802480D03*
X149225040Y-71851520D03*
X147325040Y-71851520D03*
D15*
X159905700Y-60769500D03*
X170512302Y-71376102D03*
D16*
X141640560Y-78841640D03*
X141640560Y-76941640D03*
X153802080Y-78927920D03*
X153802080Y-80827920D03*
D14*
X149768600Y-80810100D03*
X147868600Y-80810100D03*
D16*
X166319200Y-79364880D03*
X166319200Y-77464880D03*
D14*
X155900080Y-81259680D03*
X157800080Y-81259680D03*
X160309520Y-81259680D03*
X162209520Y-81259680D03*
D17*
X144807300Y-88366600D03*
X147307300Y-88366600D03*
X149807300Y-88366600D03*
X158853500Y-88366600D03*
X161353500Y-88366600D03*
X163853500Y-88366600D03*
D18*
X151257000Y-74406760D03*
X151257000Y-75676760D03*
X151257000Y-76946760D03*
X151257000Y-78216760D03*
X144907000Y-78216760D03*
X144907000Y-76946760D03*
X144907000Y-75676760D03*
X144907000Y-74406760D03*
X163830000Y-75565000D03*
X163830000Y-76835000D03*
X163830000Y-78105000D03*
X163830000Y-79375000D03*
X157480000Y-79375000D03*
X157480000Y-78105000D03*
X157480000Y-76835000D03*
X157480000Y-75565000D03*
D19*
X176936400Y-88912700D03*
D20*
X176936400Y-83832700D03*
D19*
X176888140Y-73619360D03*
D20*
X176888140Y-68539360D03*
D21*
X157467300Y-73723500D03*
X151262080Y-72623680D03*
X141335760Y-80802480D03*
X160705800Y-77457300D03*
X163819840Y-73781920D03*
D22*
X146060160Y-80792320D03*
X148986240Y-78211680D03*
D23*
X157480000Y-75565000D02*
X157480000Y-73736200D01*
X157480000Y-73736200D02*
X157467300Y-73723500D01*
X151257000Y-74406760D02*
X151257000Y-72628760D01*
X151257000Y-72628760D02*
X151262080Y-72623680D01*
X141640560Y-78841640D02*
X141640560Y-80497680D01*
X141640560Y-80497680D02*
X141335760Y-80802480D01*
X142913060Y-80802480D02*
X141335760Y-80802480D01*
X155920400Y-81544160D02*
X155920400Y-76286320D01*
X156641720Y-75565000D02*
X157480000Y-75565000D01*
X155920400Y-76286320D02*
X156641720Y-75565000D01*
X161353500Y-88366600D02*
X161353500Y-84358480D01*
X162209520Y-83502460D02*
X162209520Y-81259680D01*
X161353500Y-84358480D02*
X162209520Y-83502460D01*
X147868600Y-80810100D02*
X147868600Y-87805300D01*
X147868600Y-87805300D02*
X147307300Y-88366600D01*
X144907000Y-78216760D02*
X145275260Y-78216760D01*
X145275260Y-78216760D02*
X147868600Y-80810100D01*
X166319200Y-77464880D02*
X165641060Y-77464880D01*
X165000940Y-78105000D02*
X163830000Y-78105000D01*
X165641060Y-77464880D02*
X165000940Y-78105000D01*
X157480000Y-76835000D02*
X160083500Y-76835000D01*
X160083500Y-76835000D02*
X160705800Y-77457300D01*
X163830000Y-76835000D02*
X161328100Y-76835000D01*
X161328100Y-76835000D02*
X160705800Y-77457300D01*
X163830000Y-78105000D02*
X161353500Y-78105000D01*
X160058100Y-78105000D02*
X160705800Y-77457300D01*
X160058100Y-78105000D02*
X157480000Y-78105000D01*
X161353500Y-78105000D02*
X160705800Y-77457300D01*
X163830000Y-75565000D02*
X163830000Y-73792080D01*
X163830000Y-73792080D02*
X163819840Y-73781920D01*
X170434000Y-80264000D02*
X168960800Y-80264000D01*
X167157400Y-75565000D02*
X163830000Y-75565000D01*
X168021000Y-76428600D02*
X167157400Y-75565000D01*
X168021000Y-79324200D02*
X168021000Y-76428600D01*
X168960800Y-80264000D02*
X168021000Y-79324200D01*
D24*
X142872460Y-68491100D02*
X142872460Y-72372220D01*
X142872460Y-72372220D02*
X144907000Y-74406760D01*
X142872460Y-68491100D02*
X142872460Y-67198240D01*
X142872460Y-68491100D02*
X142872460Y-69336960D01*
X149225040Y-71851520D02*
X149225040Y-68539320D01*
X149225040Y-68539320D02*
X149273260Y-68491100D01*
X150644900Y-69862740D02*
X149273260Y-68491100D01*
X149273260Y-68491100D02*
X149273260Y-67988180D01*
X149273260Y-67988180D02*
X152049480Y-65211960D01*
X152643840Y-56794400D02*
X156933900Y-56794400D01*
X152049480Y-57388760D02*
X152643840Y-56794400D01*
X152049480Y-65211960D02*
X152049480Y-57388760D01*
D23*
X170434000Y-82804000D02*
X170827700Y-82804000D01*
X170827700Y-82804000D02*
X176936400Y-88912700D01*
X153802080Y-78927920D02*
X153802080Y-77597000D01*
X156855160Y-66608960D02*
X168422320Y-66608960D01*
X154508200Y-68955920D02*
X156855160Y-66608960D01*
X154508200Y-76890880D02*
X154508200Y-68955920D01*
X153802080Y-77597000D02*
X154508200Y-76890880D01*
X176888140Y-73619360D02*
X174538640Y-73619360D01*
X174538640Y-73619360D02*
X170434000Y-77724000D01*
X176888140Y-73619360D02*
X176888140Y-72280780D01*
X159473900Y-55161180D02*
X159473900Y-56794400D01*
X160375600Y-54259480D02*
X159473900Y-55161180D01*
X163504880Y-54259480D02*
X160375600Y-54259480D01*
X165628320Y-56382920D02*
X163504880Y-54259480D01*
X165628320Y-63814960D02*
X165628320Y-56382920D01*
X168478200Y-66664840D02*
X168422320Y-66608960D01*
X168422320Y-66608960D02*
X167015160Y-65201800D01*
X167015160Y-65201800D02*
X166941500Y-65128140D01*
X166941500Y-65128140D02*
X165628320Y-63814960D01*
X171272200Y-66664840D02*
X168478200Y-66664840D01*
X176888140Y-72280780D02*
X171272200Y-66664840D01*
X159905700Y-60769500D02*
X156857700Y-60769500D01*
X152587960Y-76946760D02*
X151257000Y-76946760D01*
X153212800Y-76321920D02*
X152587960Y-76946760D01*
X153212800Y-64414400D02*
X153212800Y-76321920D01*
X156857700Y-60769500D02*
X153212800Y-64414400D01*
X162013900Y-56794400D02*
X162013900Y-58661300D01*
X162013900Y-58661300D02*
X159905700Y-60769500D01*
D24*
X151257000Y-78216760D02*
X148991320Y-78216760D01*
X146050000Y-80802480D02*
X144813060Y-80802480D01*
X146060160Y-80792320D02*
X146050000Y-80802480D01*
X148991320Y-78216760D02*
X148986240Y-78211680D01*
X144813060Y-80802480D02*
X144813060Y-88360840D01*
X144813060Y-88360840D02*
X144807300Y-88366600D01*
X147325040Y-71851520D02*
X147325040Y-73357700D01*
X149644100Y-75676760D02*
X151257000Y-75676760D01*
X147325040Y-73357700D02*
X149644100Y-75676760D01*
X158853500Y-88366600D02*
X153537920Y-88366600D01*
X140418860Y-76941640D02*
X141640560Y-76941640D01*
X139898120Y-77462380D02*
X140418860Y-76941640D01*
X139898120Y-86923880D02*
X139898120Y-77462380D01*
X143388080Y-90413840D02*
X139898120Y-86923880D01*
X151490680Y-90413840D02*
X143388080Y-90413840D01*
X153537920Y-88366600D02*
X151490680Y-90413840D01*
X141640560Y-76941640D02*
X144901880Y-76941640D01*
X144901880Y-76941640D02*
X144907000Y-76946760D01*
X149768600Y-80810100D02*
X149768600Y-80477400D01*
X149768600Y-80477400D02*
X147076160Y-77784960D01*
X146918680Y-75676760D02*
X144907000Y-75676760D01*
X147076160Y-75834240D02*
X146918680Y-75676760D01*
X147076160Y-77784960D02*
X147076160Y-75834240D01*
X153802080Y-80827920D02*
X149786420Y-80827920D01*
X149786420Y-80827920D02*
X149768600Y-80810100D01*
X163830000Y-79375000D02*
X166309080Y-79375000D01*
X166309080Y-79375000D02*
X166319200Y-79364880D01*
X157480000Y-79375000D02*
X157480000Y-80614480D01*
X157480000Y-80614480D02*
X158125200Y-81259680D01*
X158125200Y-81259680D02*
X160309520Y-81259680D01*
M02*
