G04 #@! TF.FileFunction,Copper,L2,Bot,Signal*
%FSLAX46Y46*%
G04 Gerber Fmt 4.6, Leading zero omitted, Abs format (unit mm)*
G04 Created by KiCad (PCBNEW 4.0.4+e1-6308~48~ubuntu14.04.1-stable) date Sat Oct 22 18:10:56 2016*
%MOMM*%
%LPD*%
G01*
G04 APERTURE LIST*
%ADD10C,0.100000*%
%ADD11R,1.250000X1.000000*%
%ADD12R,2.032000X1.727200*%
%ADD13O,2.032000X1.727200*%
%ADD14O,1.501140X2.499360*%
%ADD15C,1.998980*%
%ADD16C,2.000000*%
%ADD17R,2.540000X2.540000*%
%ADD18O,2.540000X2.540000*%
%ADD19C,1.143000*%
%ADD20C,0.889000*%
%ADD21C,0.609600*%
%ADD22C,0.254000*%
G04 APERTURE END LIST*
D10*
D11*
X144142460Y-80500980D03*
X144142460Y-82500980D03*
X163901120Y-71652640D03*
X163901120Y-69652640D03*
X157500320Y-71652640D03*
X157500320Y-69652640D03*
D12*
X170434000Y-82804000D03*
D13*
X170434000Y-80264000D03*
X170434000Y-77724000D03*
D14*
X159473900Y-56794400D03*
X156933900Y-56794400D03*
X162013900Y-56794400D03*
D15*
X159905700Y-60769500D03*
X170512302Y-71376102D03*
D16*
X144807300Y-88366600D03*
X147307300Y-88366600D03*
X149807300Y-88366600D03*
X158853500Y-88366600D03*
X161353500Y-88366600D03*
X163853500Y-88366600D03*
D17*
X176936400Y-88912700D03*
D18*
X176936400Y-83832700D03*
D17*
X176888140Y-73619360D03*
D18*
X176888140Y-68539360D03*
D19*
X157467300Y-73723500D03*
X151262080Y-72623680D03*
X141335760Y-80802480D03*
X160705800Y-77457300D03*
X163819840Y-73781920D03*
D20*
X146060160Y-80792320D03*
X148986240Y-78211680D03*
D21*
X157467300Y-73723500D02*
X157467300Y-71685660D01*
X157467300Y-71685660D02*
X157500320Y-71652640D01*
X141335760Y-80802480D02*
X144023840Y-80802480D01*
X144023840Y-80802480D02*
X151262080Y-73564240D01*
X151262080Y-73564240D02*
X151262080Y-72623680D01*
X157467300Y-73723500D02*
X152361900Y-73723500D01*
X152361900Y-73723500D02*
X151262080Y-72623680D01*
X151262080Y-72623680D02*
X151262080Y-72644000D01*
X141335760Y-80802480D02*
X141343380Y-80802480D01*
X163901120Y-73700640D02*
X163901120Y-71652640D01*
X163819840Y-73781920D02*
X163901120Y-73700640D01*
D22*
X146405600Y-80792320D02*
X146060160Y-80792320D01*
X148986240Y-78211680D02*
X146405600Y-80792320D01*
G36*
X179655000Y-91263000D02*
X139394400Y-91263000D01*
X139394400Y-88690395D01*
X143172016Y-88690395D01*
X143420406Y-89291543D01*
X143879937Y-89751878D01*
X144480652Y-90001316D01*
X145131095Y-90001884D01*
X145732243Y-89753494D01*
X145967015Y-89519132D01*
X146334373Y-89519132D01*
X146433036Y-89785987D01*
X147042761Y-90012508D01*
X147692760Y-89988456D01*
X148181564Y-89785987D01*
X148280227Y-89519132D01*
X147307300Y-88546205D01*
X146334373Y-89519132D01*
X145967015Y-89519132D01*
X146149052Y-89337413D01*
X146154768Y-89339527D01*
X147127695Y-88366600D01*
X147486905Y-88366600D01*
X148459832Y-89339527D01*
X148466022Y-89337239D01*
X148879937Y-89751878D01*
X149480652Y-90001316D01*
X150131095Y-90001884D01*
X150732243Y-89753494D01*
X151192578Y-89293963D01*
X151442016Y-88693248D01*
X151442018Y-88690395D01*
X157218216Y-88690395D01*
X157466606Y-89291543D01*
X157926137Y-89751878D01*
X158526852Y-90001316D01*
X159177295Y-90001884D01*
X159778443Y-89753494D01*
X160013215Y-89519132D01*
X160380573Y-89519132D01*
X160479236Y-89785987D01*
X161088961Y-90012508D01*
X161738960Y-89988456D01*
X162227764Y-89785987D01*
X162326427Y-89519132D01*
X161353500Y-88546205D01*
X160380573Y-89519132D01*
X160013215Y-89519132D01*
X160195252Y-89337413D01*
X160200968Y-89339527D01*
X161173895Y-88366600D01*
X161533105Y-88366600D01*
X162506032Y-89339527D01*
X162512222Y-89337239D01*
X162926137Y-89751878D01*
X163526852Y-90001316D01*
X164177295Y-90001884D01*
X164778443Y-89753494D01*
X165238778Y-89293963D01*
X165488216Y-88693248D01*
X165488784Y-88042805D01*
X165323464Y-87642700D01*
X175018960Y-87642700D01*
X175018960Y-90182700D01*
X175063238Y-90418017D01*
X175202310Y-90634141D01*
X175414510Y-90779131D01*
X175666400Y-90830140D01*
X178206400Y-90830140D01*
X178441717Y-90785862D01*
X178657841Y-90646790D01*
X178802831Y-90434590D01*
X178853840Y-90182700D01*
X178853840Y-87642700D01*
X178809562Y-87407383D01*
X178670490Y-87191259D01*
X178458290Y-87046269D01*
X178206400Y-86995260D01*
X175666400Y-86995260D01*
X175431083Y-87039538D01*
X175214959Y-87178610D01*
X175069969Y-87390810D01*
X175018960Y-87642700D01*
X165323464Y-87642700D01*
X165240394Y-87441657D01*
X164780863Y-86981322D01*
X164180148Y-86731884D01*
X163529705Y-86731316D01*
X162928557Y-86979706D01*
X162511748Y-87395787D01*
X162506032Y-87393673D01*
X161533105Y-88366600D01*
X161173895Y-88366600D01*
X160200968Y-87393673D01*
X160194778Y-87395961D01*
X160013203Y-87214068D01*
X160380573Y-87214068D01*
X161353500Y-88186995D01*
X162326427Y-87214068D01*
X162227764Y-86947213D01*
X161618039Y-86720692D01*
X160968040Y-86744744D01*
X160479236Y-86947213D01*
X160380573Y-87214068D01*
X160013203Y-87214068D01*
X159780863Y-86981322D01*
X159180148Y-86731884D01*
X158529705Y-86731316D01*
X157928557Y-86979706D01*
X157468222Y-87439237D01*
X157218784Y-88039952D01*
X157218216Y-88690395D01*
X151442018Y-88690395D01*
X151442584Y-88042805D01*
X151194194Y-87441657D01*
X150734663Y-86981322D01*
X150133948Y-86731884D01*
X149483505Y-86731316D01*
X148882357Y-86979706D01*
X148465548Y-87395787D01*
X148459832Y-87393673D01*
X147486905Y-88366600D01*
X147127695Y-88366600D01*
X146154768Y-87393673D01*
X146148578Y-87395961D01*
X145967003Y-87214068D01*
X146334373Y-87214068D01*
X147307300Y-88186995D01*
X148280227Y-87214068D01*
X148181564Y-86947213D01*
X147571839Y-86720692D01*
X146921840Y-86744744D01*
X146433036Y-86947213D01*
X146334373Y-87214068D01*
X145967003Y-87214068D01*
X145734663Y-86981322D01*
X145133948Y-86731884D01*
X144483505Y-86731316D01*
X143882357Y-86979706D01*
X143422022Y-87439237D01*
X143172584Y-88039952D01*
X143172016Y-88690395D01*
X139394400Y-88690395D01*
X139394400Y-84932609D01*
X140572300Y-84932609D01*
X140572300Y-85200591D01*
X140696757Y-85826278D01*
X141051180Y-86356711D01*
X141581613Y-86711134D01*
X142207300Y-86835591D01*
X142832987Y-86711134D01*
X143363420Y-86356711D01*
X143717843Y-85826278D01*
X143842300Y-85200591D01*
X143842300Y-84932609D01*
X150772300Y-84932609D01*
X150772300Y-85200591D01*
X150896757Y-85826278D01*
X151251180Y-86356711D01*
X151781613Y-86711134D01*
X152407300Y-86835591D01*
X153032987Y-86711134D01*
X153563420Y-86356711D01*
X153917843Y-85826278D01*
X154042300Y-85200591D01*
X154042300Y-84932609D01*
X154618500Y-84932609D01*
X154618500Y-85200591D01*
X154742957Y-85826278D01*
X155097380Y-86356711D01*
X155627813Y-86711134D01*
X156253500Y-86835591D01*
X156879187Y-86711134D01*
X157409620Y-86356711D01*
X157764043Y-85826278D01*
X157888500Y-85200591D01*
X157888500Y-84932609D01*
X164818500Y-84932609D01*
X164818500Y-85200591D01*
X164942957Y-85826278D01*
X165297380Y-86356711D01*
X165827813Y-86711134D01*
X166453500Y-86835591D01*
X167079187Y-86711134D01*
X167609620Y-86356711D01*
X167964043Y-85826278D01*
X168088500Y-85200591D01*
X168088500Y-84932609D01*
X167964043Y-84306922D01*
X167609620Y-83776489D01*
X167079187Y-83422066D01*
X166453500Y-83297609D01*
X165827813Y-83422066D01*
X165297380Y-83776489D01*
X164942957Y-84306922D01*
X164818500Y-84932609D01*
X157888500Y-84932609D01*
X157764043Y-84306922D01*
X157409620Y-83776489D01*
X156879187Y-83422066D01*
X156253500Y-83297609D01*
X155627813Y-83422066D01*
X155097380Y-83776489D01*
X154742957Y-84306922D01*
X154618500Y-84932609D01*
X154042300Y-84932609D01*
X153917843Y-84306922D01*
X153563420Y-83776489D01*
X153032987Y-83422066D01*
X152407300Y-83297609D01*
X151781613Y-83422066D01*
X151251180Y-83776489D01*
X150896757Y-84306922D01*
X150772300Y-84932609D01*
X143842300Y-84932609D01*
X143717843Y-84306922D01*
X143363420Y-83776489D01*
X142832987Y-83422066D01*
X142207300Y-83297609D01*
X141581613Y-83422066D01*
X141051180Y-83776489D01*
X140696757Y-84306922D01*
X140572300Y-84932609D01*
X139394400Y-84932609D01*
X139394400Y-82786730D01*
X142882460Y-82786730D01*
X142882460Y-83127289D01*
X142979133Y-83360678D01*
X143157761Y-83539307D01*
X143391150Y-83635980D01*
X143856710Y-83635980D01*
X144015460Y-83477230D01*
X144015460Y-82627980D01*
X144269460Y-82627980D01*
X144269460Y-83477230D01*
X144428210Y-83635980D01*
X144893770Y-83635980D01*
X145127159Y-83539307D01*
X145305787Y-83360678D01*
X145402460Y-83127289D01*
X145402460Y-82786730D01*
X145243710Y-82627980D01*
X144269460Y-82627980D01*
X144015460Y-82627980D01*
X143041210Y-82627980D01*
X142882460Y-82786730D01*
X139394400Y-82786730D01*
X139394400Y-81041415D01*
X140129051Y-81041415D01*
X140312342Y-81485015D01*
X140651440Y-81824705D01*
X141094719Y-82008770D01*
X141574695Y-82009189D01*
X142018295Y-81825898D01*
X142102059Y-81742280D01*
X142937298Y-81742280D01*
X142882460Y-81874671D01*
X142882460Y-82215230D01*
X143041210Y-82373980D01*
X144015460Y-82373980D01*
X144015460Y-82353980D01*
X144269460Y-82353980D01*
X144269460Y-82373980D01*
X145243710Y-82373980D01*
X145402460Y-82215230D01*
X145402460Y-81874671D01*
X145305787Y-81641282D01*
X145164550Y-81500044D01*
X145211304Y-81469959D01*
X145447874Y-81706942D01*
X145844492Y-81871633D01*
X146273944Y-81872007D01*
X146670849Y-81708009D01*
X146974782Y-81404606D01*
X147048517Y-81227033D01*
X148984371Y-79291179D01*
X149200024Y-79291367D01*
X149596929Y-79127369D01*
X149900862Y-78823966D01*
X150065553Y-78427348D01*
X150065927Y-77997896D01*
X149952756Y-77724000D01*
X168750655Y-77724000D01*
X168864729Y-78297489D01*
X169189585Y-78783670D01*
X169504366Y-78994000D01*
X169189585Y-79204330D01*
X168864729Y-79690511D01*
X168750655Y-80264000D01*
X168864729Y-80837489D01*
X169189585Y-81323670D01*
X169203913Y-81333243D01*
X169182683Y-81337238D01*
X168966559Y-81476310D01*
X168821569Y-81688510D01*
X168770560Y-81940400D01*
X168770560Y-83667600D01*
X168814838Y-83902917D01*
X168953910Y-84119041D01*
X169166110Y-84264031D01*
X169418000Y-84315040D01*
X171450000Y-84315040D01*
X171685317Y-84270762D01*
X171709062Y-84255482D01*
X175078900Y-84255482D01*
X175382085Y-84934134D01*
X175921901Y-85445103D01*
X176513619Y-85690193D01*
X176809400Y-85574326D01*
X176809400Y-83959700D01*
X177063400Y-83959700D01*
X177063400Y-85574326D01*
X177359181Y-85690193D01*
X177950899Y-85445103D01*
X178490715Y-84934134D01*
X178793900Y-84255482D01*
X178678419Y-83959700D01*
X177063400Y-83959700D01*
X176809400Y-83959700D01*
X175194381Y-83959700D01*
X175078900Y-84255482D01*
X171709062Y-84255482D01*
X171901441Y-84131690D01*
X172046431Y-83919490D01*
X172097440Y-83667600D01*
X172097440Y-83409918D01*
X175078900Y-83409918D01*
X175194381Y-83705700D01*
X176809400Y-83705700D01*
X176809400Y-82091074D01*
X177063400Y-82091074D01*
X177063400Y-83705700D01*
X178678419Y-83705700D01*
X178793900Y-83409918D01*
X178490715Y-82731266D01*
X177950899Y-82220297D01*
X177359181Y-81975207D01*
X177063400Y-82091074D01*
X176809400Y-82091074D01*
X176513619Y-81975207D01*
X175921901Y-82220297D01*
X175382085Y-82731266D01*
X175078900Y-83409918D01*
X172097440Y-83409918D01*
X172097440Y-81940400D01*
X172053162Y-81705083D01*
X171914090Y-81488959D01*
X171701890Y-81343969D01*
X171660561Y-81335600D01*
X171678415Y-81323670D01*
X172003271Y-80837489D01*
X172117345Y-80264000D01*
X172003271Y-79690511D01*
X171678415Y-79204330D01*
X171363634Y-78994000D01*
X171678415Y-78783670D01*
X172003271Y-78297489D01*
X172117345Y-77724000D01*
X172003271Y-77150511D01*
X171678415Y-76664330D01*
X171192234Y-76339474D01*
X170618745Y-76225400D01*
X170249255Y-76225400D01*
X169675766Y-76339474D01*
X169189585Y-76664330D01*
X168864729Y-77150511D01*
X168750655Y-77724000D01*
X149952756Y-77724000D01*
X149901929Y-77600991D01*
X149598526Y-77297058D01*
X149201908Y-77132367D01*
X149023187Y-77132211D01*
X151739322Y-74416076D01*
X152002254Y-74591762D01*
X152361900Y-74663300D01*
X156700699Y-74663300D01*
X156782980Y-74745725D01*
X157226259Y-74929790D01*
X157706235Y-74930209D01*
X158149835Y-74746918D01*
X158489525Y-74407820D01*
X158650206Y-74020855D01*
X162613131Y-74020855D01*
X162796422Y-74464455D01*
X163135520Y-74804145D01*
X163578799Y-74988210D01*
X164058775Y-74988629D01*
X164502375Y-74805338D01*
X164842065Y-74466240D01*
X165026130Y-74022961D01*
X165026549Y-73542985D01*
X164843258Y-73099385D01*
X164840920Y-73097043D01*
X164840920Y-72704656D01*
X164977561Y-72616730D01*
X165122551Y-72404530D01*
X165173560Y-72152640D01*
X165173560Y-71761480D01*
X168890961Y-71761480D01*
X169161856Y-72352605D01*
X169638344Y-72795066D01*
X170126924Y-72997443D01*
X170385302Y-72878506D01*
X170385302Y-71503102D01*
X170639302Y-71503102D01*
X170639302Y-72878506D01*
X170897680Y-72997443D01*
X171488805Y-72726548D01*
X171839057Y-72349360D01*
X174970700Y-72349360D01*
X174970700Y-74889360D01*
X175014978Y-75124677D01*
X175154050Y-75340801D01*
X175366250Y-75485791D01*
X175618140Y-75536800D01*
X178158140Y-75536800D01*
X178393457Y-75492522D01*
X178609581Y-75353450D01*
X178754571Y-75141250D01*
X178805580Y-74889360D01*
X178805580Y-72349360D01*
X178761302Y-72114043D01*
X178622230Y-71897919D01*
X178410030Y-71752929D01*
X178158140Y-71701920D01*
X175618140Y-71701920D01*
X175382823Y-71746198D01*
X175166699Y-71885270D01*
X175021709Y-72097470D01*
X174970700Y-72349360D01*
X171839057Y-72349360D01*
X171931266Y-72250060D01*
X172133643Y-71761480D01*
X172014706Y-71503102D01*
X170639302Y-71503102D01*
X170385302Y-71503102D01*
X169009898Y-71503102D01*
X168890961Y-71761480D01*
X165173560Y-71761480D01*
X165173560Y-71152640D01*
X165143094Y-70990724D01*
X168890961Y-70990724D01*
X169009898Y-71249102D01*
X170385302Y-71249102D01*
X170385302Y-69873698D01*
X170639302Y-69873698D01*
X170639302Y-71249102D01*
X172014706Y-71249102D01*
X172133643Y-70990724D01*
X171862748Y-70399599D01*
X171386260Y-69957138D01*
X170897680Y-69754761D01*
X170639302Y-69873698D01*
X170385302Y-69873698D01*
X170126924Y-69754761D01*
X169535799Y-70025656D01*
X169093338Y-70502144D01*
X168890961Y-70990724D01*
X165143094Y-70990724D01*
X165129282Y-70917323D01*
X164990210Y-70701199D01*
X164922114Y-70654671D01*
X165064447Y-70512338D01*
X165161120Y-70278949D01*
X165161120Y-69938390D01*
X165002370Y-69779640D01*
X164028120Y-69779640D01*
X164028120Y-69799640D01*
X163774120Y-69799640D01*
X163774120Y-69779640D01*
X162799870Y-69779640D01*
X162641120Y-69938390D01*
X162641120Y-70278949D01*
X162737793Y-70512338D01*
X162879030Y-70653576D01*
X162824679Y-70688550D01*
X162679689Y-70900750D01*
X162628680Y-71152640D01*
X162628680Y-72152640D01*
X162672958Y-72387957D01*
X162812030Y-72604081D01*
X162961320Y-72706086D01*
X162961320Y-72934180D01*
X162797615Y-73097600D01*
X162613550Y-73540879D01*
X162613131Y-74020855D01*
X158650206Y-74020855D01*
X158673590Y-73964541D01*
X158674009Y-73484565D01*
X158490718Y-73040965D01*
X158407100Y-72957201D01*
X158407100Y-72725904D01*
X158576761Y-72616730D01*
X158721751Y-72404530D01*
X158772760Y-72152640D01*
X158772760Y-71152640D01*
X158728482Y-70917323D01*
X158589410Y-70701199D01*
X158521314Y-70654671D01*
X158663647Y-70512338D01*
X158760320Y-70278949D01*
X158760320Y-69938390D01*
X158601570Y-69779640D01*
X157627320Y-69779640D01*
X157627320Y-69799640D01*
X157373320Y-69799640D01*
X157373320Y-69779640D01*
X156399070Y-69779640D01*
X156240320Y-69938390D01*
X156240320Y-70278949D01*
X156336993Y-70512338D01*
X156478230Y-70653576D01*
X156423879Y-70688550D01*
X156278889Y-70900750D01*
X156227880Y-71152640D01*
X156227880Y-72152640D01*
X156272158Y-72387957D01*
X156411230Y-72604081D01*
X156527500Y-72683525D01*
X156527500Y-72783700D01*
X152751178Y-72783700D01*
X152468687Y-72501209D01*
X152468789Y-72384745D01*
X152285498Y-71941145D01*
X151946400Y-71601455D01*
X151503121Y-71417390D01*
X151023145Y-71416971D01*
X150579545Y-71600262D01*
X150239855Y-71939360D01*
X150055790Y-72382639D01*
X150055371Y-72862615D01*
X150224734Y-73272508D01*
X144143702Y-79353540D01*
X143517460Y-79353540D01*
X143282143Y-79397818D01*
X143066019Y-79536890D01*
X142921029Y-79749090D01*
X142898026Y-79862680D01*
X142102361Y-79862680D01*
X142020080Y-79780255D01*
X141576801Y-79596190D01*
X141096825Y-79595771D01*
X140653225Y-79779062D01*
X140313535Y-80118160D01*
X140129470Y-80561439D01*
X140129051Y-81041415D01*
X139394400Y-81041415D01*
X139394400Y-69026331D01*
X156240320Y-69026331D01*
X156240320Y-69366890D01*
X156399070Y-69525640D01*
X157373320Y-69525640D01*
X157373320Y-68676390D01*
X157627320Y-68676390D01*
X157627320Y-69525640D01*
X158601570Y-69525640D01*
X158760320Y-69366890D01*
X158760320Y-69026331D01*
X162641120Y-69026331D01*
X162641120Y-69366890D01*
X162799870Y-69525640D01*
X163774120Y-69525640D01*
X163774120Y-68676390D01*
X164028120Y-68676390D01*
X164028120Y-69525640D01*
X165002370Y-69525640D01*
X165161120Y-69366890D01*
X165161120Y-69026331D01*
X165134533Y-68962142D01*
X175030640Y-68962142D01*
X175333825Y-69640794D01*
X175873641Y-70151763D01*
X176465359Y-70396853D01*
X176761140Y-70280986D01*
X176761140Y-68666360D01*
X177015140Y-68666360D01*
X177015140Y-70280986D01*
X177310921Y-70396853D01*
X177902639Y-70151763D01*
X178442455Y-69640794D01*
X178745640Y-68962142D01*
X178630159Y-68666360D01*
X177015140Y-68666360D01*
X176761140Y-68666360D01*
X175146121Y-68666360D01*
X175030640Y-68962142D01*
X165134533Y-68962142D01*
X165064447Y-68792942D01*
X164885819Y-68614313D01*
X164652430Y-68517640D01*
X164186870Y-68517640D01*
X164028120Y-68676390D01*
X163774120Y-68676390D01*
X163615370Y-68517640D01*
X163149810Y-68517640D01*
X162916421Y-68614313D01*
X162737793Y-68792942D01*
X162641120Y-69026331D01*
X158760320Y-69026331D01*
X158663647Y-68792942D01*
X158485019Y-68614313D01*
X158251630Y-68517640D01*
X157786070Y-68517640D01*
X157627320Y-68676390D01*
X157373320Y-68676390D01*
X157214570Y-68517640D01*
X156749010Y-68517640D01*
X156515621Y-68614313D01*
X156336993Y-68792942D01*
X156240320Y-69026331D01*
X139394400Y-69026331D01*
X139394400Y-68116578D01*
X175030640Y-68116578D01*
X175146121Y-68412360D01*
X176761140Y-68412360D01*
X176761140Y-66797734D01*
X177015140Y-66797734D01*
X177015140Y-68412360D01*
X178630159Y-68412360D01*
X178745640Y-68116578D01*
X178442455Y-67437926D01*
X177902639Y-66926957D01*
X177310921Y-66681867D01*
X177015140Y-66797734D01*
X176761140Y-66797734D01*
X176465359Y-66681867D01*
X175873641Y-66926957D01*
X175333825Y-67437926D01*
X175030640Y-68116578D01*
X139394400Y-68116578D01*
X139394400Y-61093194D01*
X158270926Y-61093194D01*
X158519238Y-61694155D01*
X158978627Y-62154346D01*
X159579153Y-62403706D01*
X160229394Y-62404274D01*
X160830355Y-62155962D01*
X161290546Y-61696573D01*
X161539906Y-61096047D01*
X161540474Y-60445806D01*
X161292162Y-59844845D01*
X160832773Y-59384654D01*
X160232247Y-59135294D01*
X159582006Y-59134726D01*
X158981045Y-59383038D01*
X158520854Y-59842427D01*
X158271494Y-60442953D01*
X158270926Y-61093194D01*
X139394400Y-61093194D01*
X139394400Y-56258367D01*
X155548330Y-56258367D01*
X155548330Y-57330433D01*
X155653800Y-57860668D01*
X155954154Y-58310179D01*
X156403665Y-58610533D01*
X156933900Y-58716003D01*
X157464135Y-58610533D01*
X157913646Y-58310179D01*
X158203900Y-57875784D01*
X158494154Y-58310179D01*
X158943665Y-58610533D01*
X159473900Y-58716003D01*
X160004135Y-58610533D01*
X160453646Y-58310179D01*
X160743900Y-57875784D01*
X161034154Y-58310179D01*
X161483665Y-58610533D01*
X162013900Y-58716003D01*
X162544135Y-58610533D01*
X162993646Y-58310179D01*
X163294000Y-57860668D01*
X163399470Y-57330433D01*
X163399470Y-56258367D01*
X163294000Y-55728132D01*
X162993646Y-55278621D01*
X162544135Y-54978267D01*
X162013900Y-54872797D01*
X161483665Y-54978267D01*
X161034154Y-55278621D01*
X160743900Y-55713016D01*
X160453646Y-55278621D01*
X160004135Y-54978267D01*
X159473900Y-54872797D01*
X158943665Y-54978267D01*
X158494154Y-55278621D01*
X158203900Y-55713016D01*
X157913646Y-55278621D01*
X157464135Y-54978267D01*
X156933900Y-54872797D01*
X156403665Y-54978267D01*
X155954154Y-55278621D01*
X155653800Y-55728132D01*
X155548330Y-56258367D01*
X139394400Y-56258367D01*
X139394400Y-53148530D01*
X144995590Y-53148530D01*
X145267633Y-53806925D01*
X145770925Y-54311096D01*
X146428845Y-54584289D01*
X147141230Y-54584910D01*
X147799625Y-54312867D01*
X148303796Y-53809575D01*
X148576989Y-53151655D01*
X148576991Y-53148530D01*
X170395590Y-53148530D01*
X170667633Y-53806925D01*
X171170925Y-54311096D01*
X171828845Y-54584289D01*
X172541230Y-54584910D01*
X173199625Y-54312867D01*
X173703796Y-53809575D01*
X173976989Y-53151655D01*
X173977610Y-52439270D01*
X173705567Y-51780875D01*
X173202275Y-51276704D01*
X172544355Y-51003511D01*
X171831970Y-51002890D01*
X171173575Y-51274933D01*
X170669404Y-51778225D01*
X170396211Y-52436145D01*
X170395590Y-53148530D01*
X148576991Y-53148530D01*
X148577610Y-52439270D01*
X148305567Y-51780875D01*
X147802275Y-51276704D01*
X147144355Y-51003511D01*
X146431970Y-51002890D01*
X145773575Y-51274933D01*
X145269404Y-51778225D01*
X144996211Y-52436145D01*
X144995590Y-53148530D01*
X139394400Y-53148530D01*
X139394400Y-40994800D01*
X179655000Y-40994800D01*
X179655000Y-91263000D01*
X179655000Y-91263000D01*
G37*
X179655000Y-91263000D02*
X139394400Y-91263000D01*
X139394400Y-88690395D01*
X143172016Y-88690395D01*
X143420406Y-89291543D01*
X143879937Y-89751878D01*
X144480652Y-90001316D01*
X145131095Y-90001884D01*
X145732243Y-89753494D01*
X145967015Y-89519132D01*
X146334373Y-89519132D01*
X146433036Y-89785987D01*
X147042761Y-90012508D01*
X147692760Y-89988456D01*
X148181564Y-89785987D01*
X148280227Y-89519132D01*
X147307300Y-88546205D01*
X146334373Y-89519132D01*
X145967015Y-89519132D01*
X146149052Y-89337413D01*
X146154768Y-89339527D01*
X147127695Y-88366600D01*
X147486905Y-88366600D01*
X148459832Y-89339527D01*
X148466022Y-89337239D01*
X148879937Y-89751878D01*
X149480652Y-90001316D01*
X150131095Y-90001884D01*
X150732243Y-89753494D01*
X151192578Y-89293963D01*
X151442016Y-88693248D01*
X151442018Y-88690395D01*
X157218216Y-88690395D01*
X157466606Y-89291543D01*
X157926137Y-89751878D01*
X158526852Y-90001316D01*
X159177295Y-90001884D01*
X159778443Y-89753494D01*
X160013215Y-89519132D01*
X160380573Y-89519132D01*
X160479236Y-89785987D01*
X161088961Y-90012508D01*
X161738960Y-89988456D01*
X162227764Y-89785987D01*
X162326427Y-89519132D01*
X161353500Y-88546205D01*
X160380573Y-89519132D01*
X160013215Y-89519132D01*
X160195252Y-89337413D01*
X160200968Y-89339527D01*
X161173895Y-88366600D01*
X161533105Y-88366600D01*
X162506032Y-89339527D01*
X162512222Y-89337239D01*
X162926137Y-89751878D01*
X163526852Y-90001316D01*
X164177295Y-90001884D01*
X164778443Y-89753494D01*
X165238778Y-89293963D01*
X165488216Y-88693248D01*
X165488784Y-88042805D01*
X165323464Y-87642700D01*
X175018960Y-87642700D01*
X175018960Y-90182700D01*
X175063238Y-90418017D01*
X175202310Y-90634141D01*
X175414510Y-90779131D01*
X175666400Y-90830140D01*
X178206400Y-90830140D01*
X178441717Y-90785862D01*
X178657841Y-90646790D01*
X178802831Y-90434590D01*
X178853840Y-90182700D01*
X178853840Y-87642700D01*
X178809562Y-87407383D01*
X178670490Y-87191259D01*
X178458290Y-87046269D01*
X178206400Y-86995260D01*
X175666400Y-86995260D01*
X175431083Y-87039538D01*
X175214959Y-87178610D01*
X175069969Y-87390810D01*
X175018960Y-87642700D01*
X165323464Y-87642700D01*
X165240394Y-87441657D01*
X164780863Y-86981322D01*
X164180148Y-86731884D01*
X163529705Y-86731316D01*
X162928557Y-86979706D01*
X162511748Y-87395787D01*
X162506032Y-87393673D01*
X161533105Y-88366600D01*
X161173895Y-88366600D01*
X160200968Y-87393673D01*
X160194778Y-87395961D01*
X160013203Y-87214068D01*
X160380573Y-87214068D01*
X161353500Y-88186995D01*
X162326427Y-87214068D01*
X162227764Y-86947213D01*
X161618039Y-86720692D01*
X160968040Y-86744744D01*
X160479236Y-86947213D01*
X160380573Y-87214068D01*
X160013203Y-87214068D01*
X159780863Y-86981322D01*
X159180148Y-86731884D01*
X158529705Y-86731316D01*
X157928557Y-86979706D01*
X157468222Y-87439237D01*
X157218784Y-88039952D01*
X157218216Y-88690395D01*
X151442018Y-88690395D01*
X151442584Y-88042805D01*
X151194194Y-87441657D01*
X150734663Y-86981322D01*
X150133948Y-86731884D01*
X149483505Y-86731316D01*
X148882357Y-86979706D01*
X148465548Y-87395787D01*
X148459832Y-87393673D01*
X147486905Y-88366600D01*
X147127695Y-88366600D01*
X146154768Y-87393673D01*
X146148578Y-87395961D01*
X145967003Y-87214068D01*
X146334373Y-87214068D01*
X147307300Y-88186995D01*
X148280227Y-87214068D01*
X148181564Y-86947213D01*
X147571839Y-86720692D01*
X146921840Y-86744744D01*
X146433036Y-86947213D01*
X146334373Y-87214068D01*
X145967003Y-87214068D01*
X145734663Y-86981322D01*
X145133948Y-86731884D01*
X144483505Y-86731316D01*
X143882357Y-86979706D01*
X143422022Y-87439237D01*
X143172584Y-88039952D01*
X143172016Y-88690395D01*
X139394400Y-88690395D01*
X139394400Y-84932609D01*
X140572300Y-84932609D01*
X140572300Y-85200591D01*
X140696757Y-85826278D01*
X141051180Y-86356711D01*
X141581613Y-86711134D01*
X142207300Y-86835591D01*
X142832987Y-86711134D01*
X143363420Y-86356711D01*
X143717843Y-85826278D01*
X143842300Y-85200591D01*
X143842300Y-84932609D01*
X150772300Y-84932609D01*
X150772300Y-85200591D01*
X150896757Y-85826278D01*
X151251180Y-86356711D01*
X151781613Y-86711134D01*
X152407300Y-86835591D01*
X153032987Y-86711134D01*
X153563420Y-86356711D01*
X153917843Y-85826278D01*
X154042300Y-85200591D01*
X154042300Y-84932609D01*
X154618500Y-84932609D01*
X154618500Y-85200591D01*
X154742957Y-85826278D01*
X155097380Y-86356711D01*
X155627813Y-86711134D01*
X156253500Y-86835591D01*
X156879187Y-86711134D01*
X157409620Y-86356711D01*
X157764043Y-85826278D01*
X157888500Y-85200591D01*
X157888500Y-84932609D01*
X164818500Y-84932609D01*
X164818500Y-85200591D01*
X164942957Y-85826278D01*
X165297380Y-86356711D01*
X165827813Y-86711134D01*
X166453500Y-86835591D01*
X167079187Y-86711134D01*
X167609620Y-86356711D01*
X167964043Y-85826278D01*
X168088500Y-85200591D01*
X168088500Y-84932609D01*
X167964043Y-84306922D01*
X167609620Y-83776489D01*
X167079187Y-83422066D01*
X166453500Y-83297609D01*
X165827813Y-83422066D01*
X165297380Y-83776489D01*
X164942957Y-84306922D01*
X164818500Y-84932609D01*
X157888500Y-84932609D01*
X157764043Y-84306922D01*
X157409620Y-83776489D01*
X156879187Y-83422066D01*
X156253500Y-83297609D01*
X155627813Y-83422066D01*
X155097380Y-83776489D01*
X154742957Y-84306922D01*
X154618500Y-84932609D01*
X154042300Y-84932609D01*
X153917843Y-84306922D01*
X153563420Y-83776489D01*
X153032987Y-83422066D01*
X152407300Y-83297609D01*
X151781613Y-83422066D01*
X151251180Y-83776489D01*
X150896757Y-84306922D01*
X150772300Y-84932609D01*
X143842300Y-84932609D01*
X143717843Y-84306922D01*
X143363420Y-83776489D01*
X142832987Y-83422066D01*
X142207300Y-83297609D01*
X141581613Y-83422066D01*
X141051180Y-83776489D01*
X140696757Y-84306922D01*
X140572300Y-84932609D01*
X139394400Y-84932609D01*
X139394400Y-82786730D01*
X142882460Y-82786730D01*
X142882460Y-83127289D01*
X142979133Y-83360678D01*
X143157761Y-83539307D01*
X143391150Y-83635980D01*
X143856710Y-83635980D01*
X144015460Y-83477230D01*
X144015460Y-82627980D01*
X144269460Y-82627980D01*
X144269460Y-83477230D01*
X144428210Y-83635980D01*
X144893770Y-83635980D01*
X145127159Y-83539307D01*
X145305787Y-83360678D01*
X145402460Y-83127289D01*
X145402460Y-82786730D01*
X145243710Y-82627980D01*
X144269460Y-82627980D01*
X144015460Y-82627980D01*
X143041210Y-82627980D01*
X142882460Y-82786730D01*
X139394400Y-82786730D01*
X139394400Y-81041415D01*
X140129051Y-81041415D01*
X140312342Y-81485015D01*
X140651440Y-81824705D01*
X141094719Y-82008770D01*
X141574695Y-82009189D01*
X142018295Y-81825898D01*
X142102059Y-81742280D01*
X142937298Y-81742280D01*
X142882460Y-81874671D01*
X142882460Y-82215230D01*
X143041210Y-82373980D01*
X144015460Y-82373980D01*
X144015460Y-82353980D01*
X144269460Y-82353980D01*
X144269460Y-82373980D01*
X145243710Y-82373980D01*
X145402460Y-82215230D01*
X145402460Y-81874671D01*
X145305787Y-81641282D01*
X145164550Y-81500044D01*
X145211304Y-81469959D01*
X145447874Y-81706942D01*
X145844492Y-81871633D01*
X146273944Y-81872007D01*
X146670849Y-81708009D01*
X146974782Y-81404606D01*
X147048517Y-81227033D01*
X148984371Y-79291179D01*
X149200024Y-79291367D01*
X149596929Y-79127369D01*
X149900862Y-78823966D01*
X150065553Y-78427348D01*
X150065927Y-77997896D01*
X149952756Y-77724000D01*
X168750655Y-77724000D01*
X168864729Y-78297489D01*
X169189585Y-78783670D01*
X169504366Y-78994000D01*
X169189585Y-79204330D01*
X168864729Y-79690511D01*
X168750655Y-80264000D01*
X168864729Y-80837489D01*
X169189585Y-81323670D01*
X169203913Y-81333243D01*
X169182683Y-81337238D01*
X168966559Y-81476310D01*
X168821569Y-81688510D01*
X168770560Y-81940400D01*
X168770560Y-83667600D01*
X168814838Y-83902917D01*
X168953910Y-84119041D01*
X169166110Y-84264031D01*
X169418000Y-84315040D01*
X171450000Y-84315040D01*
X171685317Y-84270762D01*
X171709062Y-84255482D01*
X175078900Y-84255482D01*
X175382085Y-84934134D01*
X175921901Y-85445103D01*
X176513619Y-85690193D01*
X176809400Y-85574326D01*
X176809400Y-83959700D01*
X177063400Y-83959700D01*
X177063400Y-85574326D01*
X177359181Y-85690193D01*
X177950899Y-85445103D01*
X178490715Y-84934134D01*
X178793900Y-84255482D01*
X178678419Y-83959700D01*
X177063400Y-83959700D01*
X176809400Y-83959700D01*
X175194381Y-83959700D01*
X175078900Y-84255482D01*
X171709062Y-84255482D01*
X171901441Y-84131690D01*
X172046431Y-83919490D01*
X172097440Y-83667600D01*
X172097440Y-83409918D01*
X175078900Y-83409918D01*
X175194381Y-83705700D01*
X176809400Y-83705700D01*
X176809400Y-82091074D01*
X177063400Y-82091074D01*
X177063400Y-83705700D01*
X178678419Y-83705700D01*
X178793900Y-83409918D01*
X178490715Y-82731266D01*
X177950899Y-82220297D01*
X177359181Y-81975207D01*
X177063400Y-82091074D01*
X176809400Y-82091074D01*
X176513619Y-81975207D01*
X175921901Y-82220297D01*
X175382085Y-82731266D01*
X175078900Y-83409918D01*
X172097440Y-83409918D01*
X172097440Y-81940400D01*
X172053162Y-81705083D01*
X171914090Y-81488959D01*
X171701890Y-81343969D01*
X171660561Y-81335600D01*
X171678415Y-81323670D01*
X172003271Y-80837489D01*
X172117345Y-80264000D01*
X172003271Y-79690511D01*
X171678415Y-79204330D01*
X171363634Y-78994000D01*
X171678415Y-78783670D01*
X172003271Y-78297489D01*
X172117345Y-77724000D01*
X172003271Y-77150511D01*
X171678415Y-76664330D01*
X171192234Y-76339474D01*
X170618745Y-76225400D01*
X170249255Y-76225400D01*
X169675766Y-76339474D01*
X169189585Y-76664330D01*
X168864729Y-77150511D01*
X168750655Y-77724000D01*
X149952756Y-77724000D01*
X149901929Y-77600991D01*
X149598526Y-77297058D01*
X149201908Y-77132367D01*
X149023187Y-77132211D01*
X151739322Y-74416076D01*
X152002254Y-74591762D01*
X152361900Y-74663300D01*
X156700699Y-74663300D01*
X156782980Y-74745725D01*
X157226259Y-74929790D01*
X157706235Y-74930209D01*
X158149835Y-74746918D01*
X158489525Y-74407820D01*
X158650206Y-74020855D01*
X162613131Y-74020855D01*
X162796422Y-74464455D01*
X163135520Y-74804145D01*
X163578799Y-74988210D01*
X164058775Y-74988629D01*
X164502375Y-74805338D01*
X164842065Y-74466240D01*
X165026130Y-74022961D01*
X165026549Y-73542985D01*
X164843258Y-73099385D01*
X164840920Y-73097043D01*
X164840920Y-72704656D01*
X164977561Y-72616730D01*
X165122551Y-72404530D01*
X165173560Y-72152640D01*
X165173560Y-71761480D01*
X168890961Y-71761480D01*
X169161856Y-72352605D01*
X169638344Y-72795066D01*
X170126924Y-72997443D01*
X170385302Y-72878506D01*
X170385302Y-71503102D01*
X170639302Y-71503102D01*
X170639302Y-72878506D01*
X170897680Y-72997443D01*
X171488805Y-72726548D01*
X171839057Y-72349360D01*
X174970700Y-72349360D01*
X174970700Y-74889360D01*
X175014978Y-75124677D01*
X175154050Y-75340801D01*
X175366250Y-75485791D01*
X175618140Y-75536800D01*
X178158140Y-75536800D01*
X178393457Y-75492522D01*
X178609581Y-75353450D01*
X178754571Y-75141250D01*
X178805580Y-74889360D01*
X178805580Y-72349360D01*
X178761302Y-72114043D01*
X178622230Y-71897919D01*
X178410030Y-71752929D01*
X178158140Y-71701920D01*
X175618140Y-71701920D01*
X175382823Y-71746198D01*
X175166699Y-71885270D01*
X175021709Y-72097470D01*
X174970700Y-72349360D01*
X171839057Y-72349360D01*
X171931266Y-72250060D01*
X172133643Y-71761480D01*
X172014706Y-71503102D01*
X170639302Y-71503102D01*
X170385302Y-71503102D01*
X169009898Y-71503102D01*
X168890961Y-71761480D01*
X165173560Y-71761480D01*
X165173560Y-71152640D01*
X165143094Y-70990724D01*
X168890961Y-70990724D01*
X169009898Y-71249102D01*
X170385302Y-71249102D01*
X170385302Y-69873698D01*
X170639302Y-69873698D01*
X170639302Y-71249102D01*
X172014706Y-71249102D01*
X172133643Y-70990724D01*
X171862748Y-70399599D01*
X171386260Y-69957138D01*
X170897680Y-69754761D01*
X170639302Y-69873698D01*
X170385302Y-69873698D01*
X170126924Y-69754761D01*
X169535799Y-70025656D01*
X169093338Y-70502144D01*
X168890961Y-70990724D01*
X165143094Y-70990724D01*
X165129282Y-70917323D01*
X164990210Y-70701199D01*
X164922114Y-70654671D01*
X165064447Y-70512338D01*
X165161120Y-70278949D01*
X165161120Y-69938390D01*
X165002370Y-69779640D01*
X164028120Y-69779640D01*
X164028120Y-69799640D01*
X163774120Y-69799640D01*
X163774120Y-69779640D01*
X162799870Y-69779640D01*
X162641120Y-69938390D01*
X162641120Y-70278949D01*
X162737793Y-70512338D01*
X162879030Y-70653576D01*
X162824679Y-70688550D01*
X162679689Y-70900750D01*
X162628680Y-71152640D01*
X162628680Y-72152640D01*
X162672958Y-72387957D01*
X162812030Y-72604081D01*
X162961320Y-72706086D01*
X162961320Y-72934180D01*
X162797615Y-73097600D01*
X162613550Y-73540879D01*
X162613131Y-74020855D01*
X158650206Y-74020855D01*
X158673590Y-73964541D01*
X158674009Y-73484565D01*
X158490718Y-73040965D01*
X158407100Y-72957201D01*
X158407100Y-72725904D01*
X158576761Y-72616730D01*
X158721751Y-72404530D01*
X158772760Y-72152640D01*
X158772760Y-71152640D01*
X158728482Y-70917323D01*
X158589410Y-70701199D01*
X158521314Y-70654671D01*
X158663647Y-70512338D01*
X158760320Y-70278949D01*
X158760320Y-69938390D01*
X158601570Y-69779640D01*
X157627320Y-69779640D01*
X157627320Y-69799640D01*
X157373320Y-69799640D01*
X157373320Y-69779640D01*
X156399070Y-69779640D01*
X156240320Y-69938390D01*
X156240320Y-70278949D01*
X156336993Y-70512338D01*
X156478230Y-70653576D01*
X156423879Y-70688550D01*
X156278889Y-70900750D01*
X156227880Y-71152640D01*
X156227880Y-72152640D01*
X156272158Y-72387957D01*
X156411230Y-72604081D01*
X156527500Y-72683525D01*
X156527500Y-72783700D01*
X152751178Y-72783700D01*
X152468687Y-72501209D01*
X152468789Y-72384745D01*
X152285498Y-71941145D01*
X151946400Y-71601455D01*
X151503121Y-71417390D01*
X151023145Y-71416971D01*
X150579545Y-71600262D01*
X150239855Y-71939360D01*
X150055790Y-72382639D01*
X150055371Y-72862615D01*
X150224734Y-73272508D01*
X144143702Y-79353540D01*
X143517460Y-79353540D01*
X143282143Y-79397818D01*
X143066019Y-79536890D01*
X142921029Y-79749090D01*
X142898026Y-79862680D01*
X142102361Y-79862680D01*
X142020080Y-79780255D01*
X141576801Y-79596190D01*
X141096825Y-79595771D01*
X140653225Y-79779062D01*
X140313535Y-80118160D01*
X140129470Y-80561439D01*
X140129051Y-81041415D01*
X139394400Y-81041415D01*
X139394400Y-69026331D01*
X156240320Y-69026331D01*
X156240320Y-69366890D01*
X156399070Y-69525640D01*
X157373320Y-69525640D01*
X157373320Y-68676390D01*
X157627320Y-68676390D01*
X157627320Y-69525640D01*
X158601570Y-69525640D01*
X158760320Y-69366890D01*
X158760320Y-69026331D01*
X162641120Y-69026331D01*
X162641120Y-69366890D01*
X162799870Y-69525640D01*
X163774120Y-69525640D01*
X163774120Y-68676390D01*
X164028120Y-68676390D01*
X164028120Y-69525640D01*
X165002370Y-69525640D01*
X165161120Y-69366890D01*
X165161120Y-69026331D01*
X165134533Y-68962142D01*
X175030640Y-68962142D01*
X175333825Y-69640794D01*
X175873641Y-70151763D01*
X176465359Y-70396853D01*
X176761140Y-70280986D01*
X176761140Y-68666360D01*
X177015140Y-68666360D01*
X177015140Y-70280986D01*
X177310921Y-70396853D01*
X177902639Y-70151763D01*
X178442455Y-69640794D01*
X178745640Y-68962142D01*
X178630159Y-68666360D01*
X177015140Y-68666360D01*
X176761140Y-68666360D01*
X175146121Y-68666360D01*
X175030640Y-68962142D01*
X165134533Y-68962142D01*
X165064447Y-68792942D01*
X164885819Y-68614313D01*
X164652430Y-68517640D01*
X164186870Y-68517640D01*
X164028120Y-68676390D01*
X163774120Y-68676390D01*
X163615370Y-68517640D01*
X163149810Y-68517640D01*
X162916421Y-68614313D01*
X162737793Y-68792942D01*
X162641120Y-69026331D01*
X158760320Y-69026331D01*
X158663647Y-68792942D01*
X158485019Y-68614313D01*
X158251630Y-68517640D01*
X157786070Y-68517640D01*
X157627320Y-68676390D01*
X157373320Y-68676390D01*
X157214570Y-68517640D01*
X156749010Y-68517640D01*
X156515621Y-68614313D01*
X156336993Y-68792942D01*
X156240320Y-69026331D01*
X139394400Y-69026331D01*
X139394400Y-68116578D01*
X175030640Y-68116578D01*
X175146121Y-68412360D01*
X176761140Y-68412360D01*
X176761140Y-66797734D01*
X177015140Y-66797734D01*
X177015140Y-68412360D01*
X178630159Y-68412360D01*
X178745640Y-68116578D01*
X178442455Y-67437926D01*
X177902639Y-66926957D01*
X177310921Y-66681867D01*
X177015140Y-66797734D01*
X176761140Y-66797734D01*
X176465359Y-66681867D01*
X175873641Y-66926957D01*
X175333825Y-67437926D01*
X175030640Y-68116578D01*
X139394400Y-68116578D01*
X139394400Y-61093194D01*
X158270926Y-61093194D01*
X158519238Y-61694155D01*
X158978627Y-62154346D01*
X159579153Y-62403706D01*
X160229394Y-62404274D01*
X160830355Y-62155962D01*
X161290546Y-61696573D01*
X161539906Y-61096047D01*
X161540474Y-60445806D01*
X161292162Y-59844845D01*
X160832773Y-59384654D01*
X160232247Y-59135294D01*
X159582006Y-59134726D01*
X158981045Y-59383038D01*
X158520854Y-59842427D01*
X158271494Y-60442953D01*
X158270926Y-61093194D01*
X139394400Y-61093194D01*
X139394400Y-56258367D01*
X155548330Y-56258367D01*
X155548330Y-57330433D01*
X155653800Y-57860668D01*
X155954154Y-58310179D01*
X156403665Y-58610533D01*
X156933900Y-58716003D01*
X157464135Y-58610533D01*
X157913646Y-58310179D01*
X158203900Y-57875784D01*
X158494154Y-58310179D01*
X158943665Y-58610533D01*
X159473900Y-58716003D01*
X160004135Y-58610533D01*
X160453646Y-58310179D01*
X160743900Y-57875784D01*
X161034154Y-58310179D01*
X161483665Y-58610533D01*
X162013900Y-58716003D01*
X162544135Y-58610533D01*
X162993646Y-58310179D01*
X163294000Y-57860668D01*
X163399470Y-57330433D01*
X163399470Y-56258367D01*
X163294000Y-55728132D01*
X162993646Y-55278621D01*
X162544135Y-54978267D01*
X162013900Y-54872797D01*
X161483665Y-54978267D01*
X161034154Y-55278621D01*
X160743900Y-55713016D01*
X160453646Y-55278621D01*
X160004135Y-54978267D01*
X159473900Y-54872797D01*
X158943665Y-54978267D01*
X158494154Y-55278621D01*
X158203900Y-55713016D01*
X157913646Y-55278621D01*
X157464135Y-54978267D01*
X156933900Y-54872797D01*
X156403665Y-54978267D01*
X155954154Y-55278621D01*
X155653800Y-55728132D01*
X155548330Y-56258367D01*
X139394400Y-56258367D01*
X139394400Y-53148530D01*
X144995590Y-53148530D01*
X145267633Y-53806925D01*
X145770925Y-54311096D01*
X146428845Y-54584289D01*
X147141230Y-54584910D01*
X147799625Y-54312867D01*
X148303796Y-53809575D01*
X148576989Y-53151655D01*
X148576991Y-53148530D01*
X170395590Y-53148530D01*
X170667633Y-53806925D01*
X171170925Y-54311096D01*
X171828845Y-54584289D01*
X172541230Y-54584910D01*
X173199625Y-54312867D01*
X173703796Y-53809575D01*
X173976989Y-53151655D01*
X173977610Y-52439270D01*
X173705567Y-51780875D01*
X173202275Y-51276704D01*
X172544355Y-51003511D01*
X171831970Y-51002890D01*
X171173575Y-51274933D01*
X170669404Y-51778225D01*
X170396211Y-52436145D01*
X170395590Y-53148530D01*
X148576991Y-53148530D01*
X148577610Y-52439270D01*
X148305567Y-51780875D01*
X147802275Y-51276704D01*
X147144355Y-51003511D01*
X146431970Y-51002890D01*
X145773575Y-51274933D01*
X145269404Y-51778225D01*
X144996211Y-52436145D01*
X144995590Y-53148530D01*
X139394400Y-53148530D01*
X139394400Y-40994800D01*
X179655000Y-40994800D01*
X179655000Y-91263000D01*
M02*
